<?xml version="1.0" encoding="UTF-8"?>
<svg id="Layer_1" xmlns="http://www.w3.org/2000/svg" version="1.1" viewBox="0 0 332 327.2">
  <!-- Generator: Adobe Illustrator 30.1.0, SVG Export Plug-In . SVG Version: 2.1.1 Build 136)  -->
  <g>
    <path d="M155.8,320.3h-77.5v-188.5h28.4v160.3h49.1v28.2Z"/>
    <path d="M265.6,273.5c.2,13.2-3.2,24.4-10.2,33.7-4.6,6.3-11.1,10.8-19.5,13.3-4.5,1.4-9.8,2.2-15.8,2.2-11.2,0-20.4-2.8-27.7-8.3-6.1-4.5-10.9-10.7-14.5-18.4-3.6-7.8-5.7-16.7-6.2-26.8l27-1.9c1.2,11,4.2,18.9,8.8,23.8,3.4,3.7,7.3,5.5,11.7,5.3,6.2-.2,11.2-3.2,14.9-9.1,1.9-3,2.9-7.1,2.9-12.5,0-7.9-3.5-15.7-10.6-23.5-5.7-5.3-14.1-13.3-25.3-23.9-9.4-9.1-16.1-17.3-19.9-24.5-4.2-8.1-6.3-16.9-6.3-26.5,0-17.2,5.8-30.1,17.3-39,7.1-5.3,15.9-8,26.5-8s18.8,2.3,26,6.8c5.6,3.5,10.1,8.4,13.5,14.7,3.4,6.3,5.5,13.6,6.3,21.8l-27.3,5c-.8-7.7-3-13.7-6.6-18-2.6-3.2-6.4-4.8-11.3-4.8s-9.1,2.3-11.9,6.9c-2.2,3.7-3.3,8.3-3.3,13.8,0,8.6,3.7,17.4,11.2,26.4,2.8,3.4,7,7.4,12.6,12,6.6,5.5,11,9.4,13.1,11.6,7,7,12.4,14,16.2,20.8,1.8,3.2,3.2,6.1,4.3,8.9,2.7,6.7,4.1,12.7,4.2,18.1Z"/>
  </g>
  <g>
    <path d="M166.2,6.5c119.9,0,138.5,206.8,159.5,314.7h-24.3c-13.5-71.3-24.9-307.3-135.2-307.3-110.3,0-121.7,235.9-135.2,307.3H6.8C27.7,213.2,46.4,6.5,166.2,6.5Z" fill="#e5e5e5"/>
    <path d="M326.3,321.6h-25.3v-.4c-2.2-11.2-4.3-26.5-6.7-44.2-6.5-47.9-15.4-113.4-34.3-167.2-10.3-29.4-22.7-52.2-36.7-67.9-16.3-18.3-35.6-27.5-57.1-27.5s-40.8,9.3-57.1,27.5c-14.1,15.7-26.4,38.5-36.7,67.9-18.9,53.8-27.8,119.3-34.3,167.2-2.4,17.7-4.5,33-6.6,44.2v.4H6.2v-.6c2.7-13.4,5.3-28.3,8-44.1,9.5-55.1,21.3-123.6,43.7-177.3C84.1,36.6,119.5,6,166.2,6s82.1,30.6,108.4,93.6c22.4,53.7,34.2,122.2,43.7,177.3,2.7,15.8,5.3,30.8,7.9,44.1v.6ZM301.8,320.6h23.3c-2.6-13.2-5.1-28-7.8-43.6-9.5-55-21.3-123.5-43.6-177.1C247.6,37.4,212.5,7,166.2,7s-81.4,30.4-107.5,93c-22.3,53.6-34.1,122.1-43.6,177.1-2.7,15.6-5.2,30.3-7.8,43.6h23.3c2.1-11.1,4.1-26.3,6.5-43.8,6.5-47.9,15.4-113.5,34.3-167.4,10.4-29.5,22.8-52.4,36.9-68.2,16.5-18.5,36-27.9,57.9-27.9s41.3,9.4,57.9,27.9c14.1,15.8,26.6,38.8,36.9,68.2,18.9,53.9,27.8,119.5,34.3,167.4,2.4,17.5,4.4,32.6,6.5,43.8Z" fill="#231f20"/>
  </g>
  <path d="M74.4,67.5c18.1-32.4,58.3-53.8,91.9-53.8,110.3,0,121.7,235.9,135.2,307.3h24.3C304.7,213.1,286.1,6.3,166.2,6.3c-41.2,0-70.4,24.8-91.9,61.2Z" fill="#231f20"/>
</svg>