<?xml version="1.0" encoding="UTF-8"?>
<svg id="Layer_1" xmlns="http://www.w3.org/2000/svg" xmlns:xlink="http://www.w3.org/1999/xlink" version="1.1" viewBox="0 0 2000 2000">
  <!-- Generator: Adobe Illustrator 30.1.0, SVG Export Plug-In . SVG Version: 2.1.1 Build 136)  -->
  <defs>
    <clipPath id="clippath">
      <path d="M1057.4,1020.7c1.2-9.4-5.2-18.2-14.6-19.9l-15.6-2.8-313.5-50.9c-9.8-1.6-19,5-20.6,14.8l-54.7,331.3c-1.6,9.8,5.1,19.1,14.9,20.7,110.1,17.6,219.7,34.7,329.1,52,9.9,1.6,19.1-5.2,20.6-15.1,15.4-102,36-223.8,53.9-326.6s.5-3.4.5-3.5Z" fill="none"/>
    </clipPath>
    <radialGradient id="radial-gradient" cx="1000" cy="1000" fx="1000" fy="1000" r="2000" gradientTransform="translate(500 500) scale(.5)" gradientUnits="userSpaceOnUse">
      <stop offset=".3" stop-color="#141100"/>
      <stop offset=".7" stop-color="#191500" stop-opacity=".9"/>
      <stop offset=".9" stop-color="#2e2700" stop-opacity=".5"/>
      <stop offset="1" stop-color="#4d4100" stop-opacity="0"/>
    </radialGradient>
    <clipPath id="clippath-1">
      <path id="blocks1" data-name="blocks" d="M1481.1,697.7c10,2.6,20.1,5.3,30,7.8,5.4,2.4,17.7,2.1,19.9,7.3,8,45.2-7.9,94.1-20.2,138.2-5.8,19.8-11.3,38.4-17.3,59.3-.4,2.3-2.6,3.7-4.7,3.1-.2,0-59.5-19.3-60.9-19.6-.8,0-3.3-2.4-2.5-4.4,14.8-54.1,35.2-129.6,50.6-187.3.3-2.4,2.1-5.2,5-4.4ZM808.2,1354.7c-2.8-.5-5.5,1.4-5.9,4.2-3.1,20.1-10.1,64.4-12.5,79.1s1.4,5.3,4.1,5.7h0c2.8.5,5.4-1.4,5.8-4.2,1.4-9.1,4.5-28.5,6.5-40.8,2.2-13.3,4.4-26.9,6.2-38.3.5-2.8-1.4-5.4-4.2-5.8ZM453.9,1162c-5.9,36.8-12.4,73.4-20,109.5-1,3.6,1.7,7.2,5.4,7.2,44.3,6.2,133.6,20.3,167.4,27,7.3,1.5,14.4-3.5,15.6-10.8l16.6-103.9c.7-4.2-2.2-8.2-6.4-8.9-38.2-6.2-124-20.4-168-27.7-5-.8-9.8,2.6-10.6,7.6ZM465.5,1147.5c43.7,7.2,130.3,21.6,168.2,27.7,4.2.7,8.2-2.2,8.9-6.4,3-18,10.4-63.2,13.4-81.3.7-4.2-2.2-8.2-6.4-8.9-38.3-6.3-125.1-20.7-169-28-5.1-.8-9.8,2.6-10.6,7.7-4,26.2-8,52.5-12.1,78.6-.8,5,2.6,9.7,7.6,10.5ZM756.1,845.7c-.6,0-23.1-5.8-35.3-9.1s-8.9,1.3-10.2,5.6l-24.7,76.1c-1.3,4,1.3,8.2,5.4,8.9l97.4,15.8c3.3.5,6.6-1.4,7.6-4.6,17.2-52,39.7-118.6,58.4-174.9,1.3-3.8-.9-7.8-4.8-8.8l-96.2-25.1c-3.5-.9-7.1,1.1-8.3,4.5l-27.6,85.3c-1.4,4.4,1.1,9.2,5.6,10.3,11.9,3.1,32.4,8.8,33.5,9,3.9.9,3,7-.9,6.9ZM1281,1064c20,7.3,55.8,20.4,72.7,27,5,1.9,10.6-.9,12-6.1,8.3-30.8,34.5-129.6,48-179.1,1.3-4.7-1.4-9.7-6.1-11.2l-76.8-24.4c-2.9-.9-6.1.8-6.9,3.7-16.2,59.3-32.6,121.1-48.5,180.1-1.1,4.3,1.4,8.4,5.6,9.9ZM1291.1,968.2c1-3.6-1.1-7.4-4.7-8.5l-175.9-56c-2.8-.9-5.7.7-6.5,3.5-4.1,15.3-15.5,59.7-21.1,77.1-1.2,3.7.9,7.6,4.7,8.7,31.1,8.8,137.9,50.6,170.9,62.8,4.4,1.6,9.2-.9,10.4-5.4,7.3-27.1,14.7-54.5,22.1-82.2ZM1419.9,883.1c9.2-33.7,20.7-76.1,29.6-109,2.1-7.6-1.8-9.4-4-10.4-112.7-28.7-73.6-46.1-116.2,91.1-1.1,3.9,1.1,8,4.9,9.2l76.2,24.2c4,1.3,8.3-1.1,9.5-5.2ZM1340.2,766l-179.2-48.2c-3.1-.8-6.4,1-7.2,4.2l-19.5,72.8c-.8,3,.9,6.2,3.9,7.1l176.6,56c3.2,1,6.6-.8,7.4-4.1,7.4-27,14.8-53.9,22.2-80.6.9-3.1-1-6.4-4.1-7.2ZM1129.1,813.8l-20.6,76.7c-.7,2.6.8,5.4,3.4,6.2l175.8,55.9c3.8,1.2,7.9-1,8.9-4.9,6.7-25,13.5-50,20.4-75,1-3.5-1-7.2-4.5-8.3l-174.7-55.4c-3.7-1.2-7.6,1-8.6,4.7ZM889.6,657.2c1-3-.8-6.2-3.9-7l-99-26.5c-2.9-.8-5.8.8-6.7,3.7l-28.6,88.5c-1,3,.8,6.3,3.9,7.1l98.9,25.8c2.8.7,5.8-.8,6.7-3.6,10.6-32,20.6-62.5,28.8-87.9ZM1249.7,1253.7c23.2,3.8,52.6,8.6,79.1,12.9,4.3.7,8.4-2.2,9.1-6.5,7.3-45.3,15.2-95,21.9-138.9.9-5.8-2.5-11.5-8-13.5-20.9-7.6-56.6-20.9-74.1-27.4-4-1.5-8.5,1.1-9.1,5.3-8.4,52.7-17.4,109.3-25.3,159-.7,4.3,2.2,8.3,6.5,9ZM1179.3,626.9l-20.5,76.3c-1,3.5,1.2,7.2,4.7,8.1l178,47.8c3.4.9,7-1,8.1-4.4,7.3-23.4,15.4-21.6,50.8-10.8,8,3.2,32.9,7.8,46.1,13.1s7.8-.7,8.8-4.5l13.7-51.1c1.6-6.2-4.6-8.6-9.6-9.4-22.6-6-45.5-12.1-68.1-18-2-.5-4-.9-6.1-1.1-42.2-4.1-103.3-26.1-147.3-36.1-16.8-4.9-33.6-9.8-50.3-14.6-3.6-1-7.3,1.1-8.3,4.7ZM812.4,527.4c-9.8,32.1-21.5,68.1-25.9,81.8s.8,6.4,4,7.3l103.2,27.8c4,1.1,6.3,5.2,5.1,9.2l-17.3,56.4c-1.6,5.2,1.3,10.8,6.5,12.4l229.9,73.2c4.6,1.4,9.4-1.2,10.6-5.8,11.7-43.5,31.1-115.8,43.8-163.3s-1.4-9-5.8-10.2c-114.8-32.8-228.6-63.5-343.8-94.3-4.3-1.1-8.8,1.3-10.1,5.5ZM606.4,568.1l165.6,44.3c2.9.8,5.8-.8,6.7-3.7l27.6-85.2c1-3-.8-6.3-3.8-7.1-48.6-13-96.9-25.8-145.8-38.8-7.3-.8-19.8-8-26-4.5-6.9,14-9.5,30.4-14.9,45.3-4.4,14.2-8.8,28.5-13.2,42.7-.9,3,.8,6.2,3.9,7ZM573.2,675.3l164.6,43c2.8.7,5.8-.9,6.7-3.7l28.7-88.6c1-3-.8-6.3-3.8-7.1l-165.3-44.3c-2.9-.8-5.9.9-6.7,3.7-9.3,29.9-18.6,59.9-27.9,89.8-.9,3,.8,6.2,3.9,7ZM539.5,782.3c21.4,5.5,133,34.5,161.3,41.9s7.5-1.1,8.7-4.7l29.4-87.6c1-3-.8-6.3-3.9-7.1l-164.4-42.9c-2.9-.7-5.8.9-6.7,3.7-9.4,29.9-18.8,59.8-28.3,89.7-1,3,.8,6.2,3.9,7ZM503.2,896.8l168.5,27.3c2.7.4,5.3-1.2,6.2-3.8l26.1-80.7c1-3.1-.8-6.3-3.9-7.1-25.7-6.5-129.6-34.7-163.2-43.7-2.9-.8-5.8.9-6.7,3.7-10.4,32.4-20.8,64.8-31.3,97-1,3.2,1,6.7,4.4,7.2ZM473.9,1033.2c-.8,5,2.6,9.7,7.6,10.5,43.6,7.2,131.2,21.7,169.3,28,4.2.7,8.2-2.2,8.9-6.4,4-24,16.1-97.5,19.5-118.2.5-3-1.5-5.9-4.6-6.4-27.1-4.4-147-23.9-175.9-28.5-3.3-.6-6.3,2-6.4,5.2-2.9,39.4-13.5,76.2-18.4,115.7ZM979.9,1548.8h0c-1-1.6-1.3-3.3-1-5.5-.9-2.5,18.4-97.8,23.4-144.3.8-7.5-4.4-14.3-11.9-15.5-20.3-3.2-40.7-6.4-61.2-9.7s-7.2,1.9-7.7,5.6c-5.2,33.6-11.7,76.8-16.8,109.3-.7,4.5-7.6,3.4-6.9-1.1,5.1-32.5,11.6-75.7,16.8-109.3s-1.9-7.1-5.6-7.7c-27.4-4.3-54.6-8.6-82.1-12.9-3.7-.6-7.1,1.9-7.7,5.6-2.8,17.3-9.3,57.7-12.5,78.2s-7.5,11.3-14.2,10.1h0c-6.5-1.2-10.9-7.4-9.8-13.9l5.6-35.7c2-12.3,4.9-29.8,6.9-42.4.6-3.7-1.9-7.2-5.6-7.7-33.9-4.8-69.1-10.1-83.9-12.3s-7.7,2.1-8.3,6.1c-2,13.3-6.5,42.6-11.6,69.5-.7,3.6-1.5,7.7-2,10.5s-2.1,2.8-3.8,2.3h0c-1.4-.5-2.2-1.8-2-3.2.4-2.8,1.1-7.5,1.7-11.4,2.8-16.8,9.5-52.6,12-68.6s-2.2-8.2-6.4-8.9c-18.6-3.2-68.9-11.5-93.8-15.5s-7.1,1.9-7.7,5.6c-3.1,19.3-7.2,44.3-10.1,62.6-.6,4.5-7.8,3.3-6.9-1.1,3-18.3,7-43.3,10.1-62.6.6-3.7-1.9-7.2-5.6-7.8-23.8-3.8-47.4-7.7-70.9-11.5s-17.4-2.2-26.2-2.3c-19-.2-34.8,0-54.7-4-18,62.8,35,68.3,95,86.7,32,8.5,71.9,19.1,115.9,38.2,72.7,29.2,223.2,98.9,349.9,124.7ZM1200.7,1429.1c-.2-4.2-3.3-7.7-7.4-8.4-17.4-3-65.4-11.2-93.3-15.6-4.8-.8-9.3,2.5-10.1,7.3-4.5,29.3-10.2,66.4-14.3,93-.3,1.9-2.1,3.2-4,2.9-1.9-.3-3.2-2.1-2.9-4,4.1-26.6,9.8-63.8,14.3-93.2.7-4.8-2.5-9.2-7.3-10-17-2.8-31.9-5-45-7.2-5.8-1-11.3,3-12.3,8.8-7.1,44.8-24.2,144.9-24.2,144.9-.6,1.5-1.5,2.7-2.6,3.5,84.7,14.6,157.3,5.8,188.6-40.5s18.1-56.8,20-72.3.5-6.7.4-9.2ZM1224.6,1316.1c.7-4.2-2.2-8.1-6.3-8.7-46.7-7.4-132-21.2-180.2-29-4.2-.7-8.1,2.1-8.7,6.3-3.2,19.8-8,49.8-10.9,68.2-1.4,8.8,5,16.5,13.8,18,53,9,130.5,20.9,167.2,26.5,6.5,1,12.6-2.9,13.7-9.4,3.6-22.2,7.5-46.3,11.6-71.8ZM1384.2,1381.6c4.4-26.7,8.8-54.2,13.5-81.6.8-5.3,4-13.7-3.5-15.3-13.2-2.3-31.5-5.5-45.8-7.9-3.3-.6-6.5,1.7-7,5-6.4,39.2-13,79.9-19,118-.6,4.5-7.7,3.4-6.9-1.1,6-38.1,12.6-78.8,19-118,.5-3.3-1.7-6.4-5-7-27.6-4.5-58.6-9.5-82.6-13.5-3.3-.6-6.5,1.7-7,5.1-7.3,45.6-14.2,88.2-20.2,125.3-1.2,7.3,3.8,14.2,11.2,15.3,45.8,6.9,92,14,138.3,21.2,3.9.7,7.8-2.2,8.4-6,2.2-12.9,4.4-26.1,6.6-39.5ZM1416.6,1132c-20-7.5-23.4-8.8-39.4-14.7-4.7-1.7-9.8,1.2-10.6,6.2-6.6,43.6-14.5,92.8-21.8,137.8-.7,4.3,2.2,8.3,6.5,9,13.5,2.3,27.6,4.6,40.1,6.8,9.2,1.7,9.6,1.7,15.5-26.8,5.4-26,13-61.3,17.9-83,4.6-20.5,6.4-29.8-8.3-35.3ZM1376.8,1099.6c15.4,5.8,28.7,10.7,48.3,17.9s11.5-.2,14.4-7.5c2.6-6.5,18.1-65.2,37.5-135.7,4-17.3,8.3-33.8,12.6-49.5s-.6-3.9-2.5-4.6l-56-18.1c-4.6-1.5-9.4,1.2-10.6,5.8-16.2,61.5-36.6,129.7-48.8,182-.9,3.9,1.4,8.2,5.1,9.6ZM1253.1,1070.7l-63-23.6c-3.3-1.2-7,.5-8.2,3.8-7.2,20.4-16.8,45.7-19.5,65.9l-20.1,124.9c-.3,1.7-1.8,2.9-3.5,2.9-2.1,0-3.8-2-3.5-4.1,0,0,20.1-124.9,20.1-124.9,2.8-20.5,12.2-45.6,19.6-66.4,1.3-3.8-.6-7.9-4.3-9.3-18-6.7-54.4-21.3-77.5-28.7-8.8-2.8-18.2,2.7-19.9,11.8-14.5,74.7-26.5,161.3-40.1,238.8-.8,4.5,2.3,8.9,6.8,9.6,48.1,7.8,132.2,21.3,178.8,28.8s8.8-2.4,9.5-6.9c10.3-64.4,21.9-136.4,33.3-208.2,1-6.2-2.5-12.3-8.5-14.5ZM1118.6,803.1l-234.9-74.5c-5.1-1.6-10.5,1.1-12.1,6.2-21.4,64.8-47.5,141.9-67.9,203.5-1.2,3.6,1.1,7.5,4.9,8.1l74.2,12c2.6.4,5.1-1.2,5.8-3.8,2.6-10.6,6.3-21.3,9.6-31.7-2.6-8.8-3.2-16.5,0-31.8,4.4-20.7,31.7-100.3,34.1-106.6,3.6-9.8,10.3-20.9,21.4-18,2.3.6,4.2,2.1,5.4,4.2,2.5,4.4,2.3,11.7-.6,22.2-1.5,5.6-29.2,93.3-33.3,105.4-6.5,19.5-17,25.9-20.7,27.6-3,9.5-6.4,19.3-8.8,28.8-.8,2.9,1.2,5.9,4.2,6.3,35.2,5.4,131,21.8,166.4,27.4,4.3.7,8.4-1.9,9.8-6,5.7-17.5,17.2-62.5,21.3-77.7.7-2.8-.8-5.6-3.6-6.5l-105.2-33.5c-4.3-1.3-2.2-8.1,2.1-6.7,0,0,104.5,33.2,104.5,33.2,2.9.9,6-.8,6.8-3.7l20.7-77.2c.9-3.2-1-6.5-4.1-7.5ZM950.4,773.5c-4,0-7.7,4.5-11,13.5-2.3,6.1-29.5,85.7-33.8,105.6-2.5,11.7-2.5,18.2-1.1,24.6,3.7-2.8,9.5-8.8,13.7-21.3,4.4-13.3,32-100.7,33.2-105.1,3.3-11.7,1.8-15.6,1.3-16.5-.3-.5-.5-.6-.9-.7-.5-.1-1-.2-1.5-.2Z" fill="none"/>
    </clipPath>
    <clipPath id="clippath-2">
      <path d="M985.1,1363.3c-.8,0-1.6,0-2.4-.2-32.7-5.2-65.5-10.3-98.3-15.5-75.6-11.9-153.7-24.2-230.8-36.5-4-.6-7.5-2.8-9.9-6.1-2.4-3.3-3.3-7.3-2.6-11.3l54.7-331.3c1.2-7.3,7.5-12.6,14.9-12.6s1.6,0,2.4.2l313.5,50.9,15.6,2.8c8.1,1.5,13.6,9.3,12.2,17.4-23.9,137.1-41.7,244.8-54.4,329.4-1.1,7.3-7.5,12.8-14.9,12.8Z" fill="none"/>
    </clipPath>
  </defs>
  <g id="EXTRA" display="none">
    <g clip-path="url(#clippath)">
      <g id="paths" display="none">
        <path d="M797,985.3c-27.9,8.2-44.8,32.2-62,53.7-10.9,14.7-11.8,35.2-14.1,52.7l-1.1,10.5c2.3,8.1,8.1,18.7,11.3,26.5l6.8,16.1c2.4,4.2,8,12.1,11.2,15.8,10.4,11.1,23.4,21.7,35.4,31.1" fill="none" stroke="#ccc" stroke-linecap="round" stroke-linejoin="round" stroke-width="5"/>
        <path d="M719.2,988.8c16.4-4,35.2-7.3,52.1-7,32.8,1.8,73.3,15.3,105.3,21.9,8.1.6,15.2,2.7,21.8,7.7,6.4,4.2,15.7,8.8,22.9,11.4,17.4,5.4,36.9,5.4,54.9,4.4,17.2-1.2,26.8-.8,42.2,8.1" fill="none" stroke="#ccc" stroke-linecap="round" stroke-linejoin="round" stroke-width="5"/>
        <path d="M807.1,1216.3c17.2-16-5.5-40.4-22.7-24.6-13.4,15.8,5.9,36.8,22.7,24.6" fill="none" stroke="#ccc" stroke-linecap="round" stroke-linejoin="round" stroke-width="5"/>
        <path d="M933.4,1327.7c-6.2-10.5-11.6-23.1-15.3-34.7" fill="none" stroke="#ccc" stroke-linecap="round" stroke-linejoin="round" stroke-width="5"/>
        <path d="M840.9,1133.9c10.7-2.3,23-3,33.9-1.8,14.8,2,33.2,6.7,48,9.3,20.9,4.5,43.9,9.8,61.8,22.1,7.6,4.9,20.4,10.3,20.2,21.1" fill="none" stroke="#ccc" stroke-linecap="round" stroke-linejoin="round" stroke-width="5"/>
        <path d="M1008.1,1058.6c3.6,17.9,5.1,38.5,4.9,56.7-1.3,19.1-7.1,39.3-15.5,56.5" fill="none" stroke="#ccc" stroke-linecap="round" stroke-linejoin="round" stroke-width="5"/>
        <path d="M813.3,1203.5h8.7" fill="none" stroke="#ccc" stroke-linecap="round" stroke-linejoin="round" stroke-width="5"/>
        <path d="M688,1160c4.7-1,9.2,1.3,13.5,2.7,7.7,1.8,16.7.8,24.5-.1,4.5-.7,8.1.4,12.1,2.5,4.8,1.4,11.1,1.7,16.1,1.1" fill="none" stroke="#ccc" stroke-linecap="round" stroke-linejoin="round" stroke-width="5"/>
        <path d="M960.1,1330.6c-2.2,6.4-1.6,24.5-2,31.4" fill="none" stroke="#ccc" stroke-linecap="round" stroke-linejoin="round" stroke-width="5"/>
        <path d="M942,1279c3.6-5.5,3.8-9.4,2.6-15.7-3.6-.2-4.8-5.1-6-7.8-4-3.6-9.9-5.2-14.9-3-4.2,3-9.6,6.2-14.7,7.3" fill="none" stroke="#ccc" stroke-linecap="round" stroke-linejoin="round" stroke-width="5"/>
        <path d="M944.6,1263.4c26.2-11.2,18.7,11.1,32.3,6.2,8.8-6.3,1.7-37.5-13.1-29.7-6.7,5.7-7.7,15.3-19.7,12.5" fill="none" stroke="#ccc" stroke-linecap="round" stroke-linejoin="round" stroke-width="5"/>
        <path d="M860.4,1294c-1.8-9.8-15.7-8.2-15.2,1.7,1.5,10.1,15.9,8.6,15.2-1.7" fill="none" stroke="#ccc" stroke-linecap="round" stroke-linejoin="round" stroke-width="5"/>
        <path d="M845.3,1293.3l-6.6-1.5" fill="none" stroke="#ccc" stroke-linecap="round" stroke-linejoin="round" stroke-width="5"/>
        <path d="M847.7,1307.7l-1.3,5.9" fill="none" stroke="#ccc" stroke-linecap="round" stroke-linejoin="round" stroke-width="5"/>
        <path d="M874.8,1270.9c-3.9,6.7-7.5,15.4-9.6,22.9" fill="none" stroke="#ccc" stroke-linecap="round" stroke-linejoin="round" stroke-width="5"/>
        <path d="M812.4,1147.5l5.6,4.6" fill="none" stroke="#ccc" stroke-linecap="round" stroke-linejoin="round" stroke-width="5"/>
        <path d="M810.4,1146l1.9,1.5" fill="none" stroke="#ccc" stroke-dasharray="1.5 1.5" stroke-linecap="round" stroke-linejoin="round" stroke-width="5"/>
        <path d="M907.9,1138.4c-1.8,7.2-3.7,20.4-6.8,27" fill="none" stroke="#ccc" stroke-linecap="round" stroke-linejoin="round" stroke-width="5"/>
        <path d="M944.2,1252.3c-2.1.2-4.7,1-5.5,3.2" fill="none" stroke="#ccc" stroke-linecap="round" stroke-linejoin="round" stroke-width="5"/>
        <path d="M951.3,1198.6c-.9,4.9-2.5,11.6-3,16.5-.2,3.3-.4,10.1-.5,13.5,0,5.4,2.4,13.2,4.3,18.2,6.5,22.3,4.6,44.8,34.6,44.9" fill="none" stroke="#ccc" stroke-linecap="round" stroke-linejoin="round" stroke-width="5"/>
        <path d="M958.7,1273.6l-16.7,5.4" fill="none" stroke="#ccc" stroke-linecap="round" stroke-linejoin="round" stroke-width="5"/>
        <path d="M817.4,1339.9c.2-4.7,2.3-13.3,5.8-15.7.8-4.5,3.2-10.6,5-14.8,3.5-6.4,9.3-12.9,11.6-20,2-6.2,3.6-13.9,3.2-20.4v-3.6" fill="none" stroke="#ccc" stroke-linecap="round" stroke-linejoin="round" stroke-width="5"/>
        <path d="M823.6,1340.9c.4-2.5,1-6.4,1.1-7.1.3-5.9-1.5-9.5-1.5-9.5" fill="none" stroke="#ccc" stroke-linecap="round" stroke-linejoin="round" stroke-width="5"/>
        <path d="M644.5,1310c8.2-5.6,10.5-6.8,12.9-17.3" fill="none" stroke="#ccc" stroke-linecap="round" stroke-linejoin="round" stroke-width="5"/>
        <path d="M995.6,1267.6c5.3,2.3,13.9,4.3,19.5,5.2" fill="none" stroke="#ccc" stroke-linecap="round" stroke-linejoin="round" stroke-width="5"/>
        <path d="M983.1,1342.3c-5.7-24.9,3-51.7,12.5-74.7,2.7-8.1,3-18.5,2.4-27,.2-13-8.1-29.8.6-41.3,3.3-4,6-9.6,6.2-14.6,3,.2,7.1.3,10,.7,3.5,3.2,8.8,4.9,13.6,5.3" fill="none" stroke="#ccc" stroke-linecap="round" stroke-linejoin="round" stroke-width="5"/>
        <path d="M1029.5,1184.8c-4.8-1.1-10.1-1.4-14.8.6" fill="none" stroke="#ccc" stroke-linecap="round" stroke-linejoin="round" stroke-width="5"/>
        <path d="M1031.7,1022.7c2.9-4.8,6.6-12.3,11-15s5.5-3,7.6-3.5" fill="none" stroke="#ccc" stroke-linecap="round" stroke-linejoin="round" stroke-width="5"/>
        <path d="M640.6,1305.3c4.1-5.7,9.9-10.4,16.7-12.5,27.1-31.2,67.9-78.3,98.1-104.5,12.7-11.2,28-24.5,39.4-37.1,18.7-18.5,42.6-37,62.9-53.5,31.6-21.5,72.1-21.6,109.4-28,6.6-1.1,32.1-6.1,35.8-8,13.8-6.9,6.5-21,23.2-35.7,5.6-4.9,14.4-5.8,20.9-9.4s1.8-1.2,2.5-1.9l.5-.6c.3-.4.6-.7.9-1.1l2.1-2.9,1.1-2" fill="none" stroke="#ccc" stroke-linecap="round" stroke-linejoin="round" stroke-width="5"/>
        <path d="M848,1160.2c-21.9,7-28.9,32.4-25,53.1,5.4,21.7,8.9,54.5,35.4,59.7h-.1c26.4,2.8,25.5-17.4,46.6-22.9,8.2-4.7,7.5-18.5,11.6-26.1,3.7-8.8,10.7-17.8,11.6-27.6.9-9.4-7.7-16.8-13.9-22.6-17.9-15.3-43.9-17.5-66.2-13.6Z" fill="none" stroke="#ccc" stroke-linecap="round" stroke-linejoin="round" stroke-width="5"/>
        <path d="M855.9,1282.2l2.5-9.2" fill="none" stroke="#ccc" stroke-linecap="round" stroke-linejoin="round" stroke-width="5"/>
        <path d="M927.8,1193c6.9,1.9,16.5,4.4,23.5,5.6,4.4.6,10.4.2,14.7.4,9.6,1.2,19.7,5.6,28.6,9.3" fill="none" stroke="#ccc" stroke-linecap="round" stroke-linejoin="round" stroke-width="5"/>
        <path d="M825.1,1182.3c-4.8-.7-10.1.4-14.5,2.8s-3.6,2.7-4.8,4.5c-4.9,7.6-17,28.5-17,28.5" fill="none" stroke="#ccc" stroke-linecap="round" stroke-linejoin="round" stroke-width="5"/>
        <path d="M698.4,951.8c1.7,4,4.8,8.4,7.4,11.9h0c1.7,2,5.4,5.9,7.5,7.6" fill="none" stroke="#ccc" stroke-linecap="round" stroke-linejoin="round" stroke-width="5"/>
        <path d="M703.3,948.5c9.8,6.6,9.2,11,10.1,22.7,6,15,13.3,47.6,22,61.1,8.9,8.1,19.9,16.8,29.2,24.6,4.4,4.2,5.8,11.6,6.8,17.4,1.5,10.1,1.7,22.1,6.5,31.3,8.3,14.4,20.7,28.8,32.6,40.4" fill="none" stroke="#ccc" stroke-linecap="round" stroke-linejoin="round" stroke-width="5"/>
        <path d="M691.7,1136.5l-9.6-1.5-4.5.8c-.7.1-1.4.2-2.1.2-2.9,0-7.9-1-11.1-1.5" fill="none" stroke="#ccc" stroke-linecap="round" stroke-linejoin="round" stroke-width="5"/>
        <path d="M665.3,1129.6c5.5.9,12.6,2.1,16.8,5.3" fill="none" stroke="#ccc" stroke-linecap="round" stroke-linejoin="round" stroke-width="5"/>
        <path d="M877.1,973.6c-.3,2.8-.7,6.8-.8,7.6h0c-.3,2.5.5,6.8,1.6,8.7h0c-2.7,23.5-5,51,.1,74.4,6.6,24.5,19.4,51.6,11.7,77.2" fill="none" stroke="#ccc" stroke-linecap="round" stroke-linejoin="round" stroke-width="5"/>
        <path d="M883.5,974.8c-.3,3-.4,5.4-1.6,8.8s-4.1,6.4-4.1,6.4" fill="none" stroke="#ccc" stroke-dasharray="1.5 1.5" stroke-linecap="round" stroke-linejoin="round" stroke-width="5"/>
        <path d="M694.2,1160.2c-.5-1.3-1-4.2-1.2-5.6-.4-3.4-2-10.5-2.9-13.8" fill="none" stroke="#ccc" stroke-linecap="round" stroke-linejoin="round" stroke-width="5"/>
        <path d="M867,1288.3s21.4,12.8,29.3,16.7c7.7,3.5,30.4,9.7,30.4,9.7" fill="none" stroke="#ccc" stroke-linecap="round" stroke-linejoin="round" stroke-width="5"/>
        <path d="M918.3,1292.9l-7.7-25.6-1.7-7.5-2.5-10.5" fill="none" stroke="#ccc" stroke-linecap="round" stroke-linejoin="round" stroke-width="5"/>
        <path d="M918.3,1292.9l3.5-4.1,4.2-3.1c3.3-1.2,12.6-5.2,16-6.7" fill="none" stroke="#ccc" stroke-linecap="round" stroke-linejoin="round" stroke-width="5"/>
        <path d="M941.5,1337.5c.5-4.4,5.4-5.8,5.8-10.2" fill="none" stroke="#ccc" stroke-linecap="round" stroke-linejoin="round" stroke-width="5"/>
        <path d="M860.2,1305.4c-.3,2-.5,6.1-.4,8.1,0,0,.8,3.2.8,3.2h0c6,7.3,22.4,9.3,31.4,11.2,15.1,3.4,31.4,1.9,46.4-1,16-.7,31.4,6.8,44.6,15.2,2,3,12.8,20.5,12.8,20.5" fill="none" stroke="#ccc" stroke-linecap="round" stroke-linejoin="round" stroke-width="5"/>
        <path d="M719.8,1102.3c-4.3,6.2-11.2,14-16.6,19.3-3.7,4.1-9.3,9.7-11.5,14.8-7.2,15.4-2.4,34.3.8,50,3.4,12.1,10.3,37,16,48,1.9,4.3,6.2,14,8.7,18,2.5,3.8,8.3,11.6,11.1,15.2,7.9,11,18.5,22.4,30.6,28.8l4.7,2.3,7.7,1.4c5.2.5,18.5,2.5,23.6,3,21.2,2.8,44.8,9.2,65.7,13.5" fill="none" stroke="#ccc" stroke-linecap="round" stroke-linejoin="round" stroke-width="5"/>
        <path d="M874.8,1132.1c-1.5,7-5.2,19.4-5.4,26.5" fill="none" stroke="#ccc" stroke-linecap="round" stroke-linejoin="round" stroke-width="5"/>
        <path d="M871.2,1147.3l33.2,7.1" fill="none" stroke="#ccc" stroke-linecap="round" stroke-linejoin="round" stroke-width="5"/>
        <path d="M887.8,1151l-1.9,9.7" fill="none" stroke="#ccc" stroke-dasharray="1.5 1.5" stroke-linecap="round" stroke-linejoin="round" stroke-width="5"/>
        <path d="M926,1147.6l3.4-4.8" fill="none" stroke="#ccc" stroke-linecap="round" stroke-linejoin="round" stroke-width="5"/>
        <path d="M843.9,1196.2l-20.8-.7" fill="none" stroke="#ccc" stroke-linecap="round" stroke-linejoin="round" stroke-width="5"/>
        <path d="M922.7,1267.3h-12.1" fill="none" stroke="#ccc" stroke-linecap="round" stroke-linejoin="round" stroke-width="5"/>
        <path d="M949,1262.2v1c1,4.6,1.5,6.8-3.8,8" fill="none" stroke="#ccc" stroke-dasharray="1.5 1.5" stroke-linecap="round" stroke-linejoin="round" stroke-width="5"/>
        <path d="M980.4,1259.5c2.2.1,8.1.5,10.3.4,1.5.1,5.2-.4,6.8-.5" fill="none" stroke="#ccc" stroke-linecap="round" stroke-linejoin="round" stroke-width="5"/>
        <path d="M944.2,1252.3c-.3-1-1.5-3.3-2.1-4.2-2-5.8-2.1-11.2,3.7-14.6,6.6-2.9,15.9-1.4,18.2,6.3" fill="none" stroke="#ccc" stroke-linecap="round" stroke-linejoin="round" stroke-width="5"/>
        <circle cx="851.9" cy="1294.9" r="13.4" fill="none" stroke="#ccc" stroke-linecap="round" stroke-linejoin="round" stroke-width="5"/>
        <path d="M843.1,1214.6l.8-18.4h0c-.4-8.8,3.2-17.3,10.5-22.3-.4-3.5-5.6-11.7-6.2-13.7-1.8-7.1-7.6-32.9-14.9-42.2" fill="none" stroke="#ccc" stroke-linecap="round" stroke-linejoin="round" stroke-width="5"/>
      </g>
    </g>
  </g>
  <circle id="horizon" cx="1000" cy="1000" r="1000" fill="url(#radial-gradient)"/>
  <g id="blocks">
    <path d="M1481.1,697.7c10,2.6,20.1,5.3,30,7.8,5.4,2.4,17.7,2.1,19.9,7.3,8,45.2-7.9,94.1-20.2,138.2-5.8,19.8-11.3,38.4-17.3,59.3-.4,2.3-2.6,3.7-4.7,3.1-.2,0-59.5-19.3-60.9-19.6-.8,0-3.3-2.4-2.5-4.4,14.8-54.1,35.2-129.6,50.6-187.3.3-2.4,2.1-5.2,5-4.4Z" fill="#999996"/>
    <path d="M812.5,1360.6c-1.9,11.4-4.1,25-6.2,38.3-2,12.3-5.1,31.7-6.5,40.8s-3.1,4.7-5.8,4.2h0c-2.7-.5-4.5-3-4.1-5.7,2.4-14.7,9.4-59,12.5-79.1.4-2.8,3.1-4.7,5.9-4.2,2.8.4,4.7,3.1,4.2,5.8Z" fill="#999996"/>
    <path d="M464.5,1154.4c44,7.3,129.8,21.5,168,27.7,4.2.7,7.1,4.7,6.4,8.9l-16.6,103.9c-1.2,7.4-8.3,12.3-15.6,10.8-33.8-6.8-123.1-20.8-167.4-27-3.7,0-6.4-3.6-5.4-7.2,7.6-36.1,14.1-72.7,20-109.5s5.6-8.5,10.6-7.6Z" fill="#999996"/>
    <path d="M457.9,1137c4.1-26.2,8-52.4,12.1-78.6.8-5.1,5.6-8.5,10.6-7.7,43.9,7.3,130.7,21.7,169,28,4.2.7,7.1,4.7,6.4,8.9-3,18.1-10.4,63.3-13.4,81.3-.7,4.2-4.7,7.1-8.9,6.4-37.9-6.2-124.5-20.5-168.2-27.7-5-.8-8.4-5.5-7.6-10.5Z" fill="#999996"/>
    <path d="M757,838.9c-1.1-.2-21.6-5.9-33.5-9s-7.1-5.9-5.6-10.3l27.6-85.3c1.1-3.5,4.7-5.4,8.3-4.5l96.2,25.1c3.8,1,6,5,4.8,8.8-18.7,56.3-41.2,122.9-58.4,174.9-1.1,3.2-4.3,5.2-7.6,4.6l-97.4-15.8c-4.1-.7-6.7-4.9-5.4-8.9l24.7-76.1c1.4-4.3,5.9-6.7,10.2-5.6,12.2,3.2,34.7,9.1,35.3,9.1,3.9.1,4.8-6,.9-6.9Z" fill="#999996"/>
    <path d="M1275.4,1054.2c15.9-59,32.3-120.8,48.5-180.1.8-3,3.9-4.7,6.9-3.7l76.8,24.4c4.7,1.5,7.4,6.4,6.1,11.2-13.5,49.5-39.7,148.3-48,179.1-1.4,5.2-7,8-12,6.1-16.9-6.6-52.7-19.7-72.7-27-4.2-1.5-6.7-5.6-5.6-9.9Z" fill="#999996"/>
    <path d="M1269,1050.4c-1.2,4.5-6,7-10.4,5.4-33-12.2-139.8-54-170.9-62.8-3.7-1.1-5.9-5-4.7-8.7,5.5-17.4,17-61.8,21.1-77.1.8-2.8,3.7-4.4,6.5-3.5l175.9,56c3.6,1.1,5.6,4.9,4.7,8.5-7.5,27.7-14.9,55.1-22.1,82.2Z" fill="#999996"/>
    <path d="M1410.4,888.2l-76.2-24.2c-3.9-1.2-6-5.3-4.9-9.2,42.5-137.2,3.5-119.8,116.2-91.1,2.2.9,6,2.8,4,10.4-8.9,32.9-20.4,75.3-29.6,109-1.1,4.1-5.4,6.4-9.5,5.2Z" fill="#999996"/>
    <path d="M1344.3,773.3c-7.4,26.6-14.8,53.5-22.2,80.6-.9,3.2-4.3,5.1-7.4,4.1l-176.6-56c-3-.9-4.7-4.1-3.9-7.1l19.5-72.8c.8-3.1,4.1-5,7.2-4.2l179.2,48.2c3.2.8,5,4.1,4.1,7.2Z" fill="#999996"/>
    <path d="M1137.8,809.1l174.7,55.4c3.5,1.1,5.5,4.8,4.5,8.3-6.8,25-13.6,50.1-20.4,75-1,3.9-5.1,6.1-8.9,4.9l-175.8-55.9c-2.6-.8-4.1-3.6-3.4-6.2l20.6-76.7c1-3.7,4.9-5.9,8.6-4.7Z" fill="#999996"/>
    <path d="M860.9,745.1c-.9,2.8-3.8,4.4-6.7,3.6l-98.9-25.8c-3.1-.8-4.9-4-3.9-7.1l28.6-88.5c.9-2.8,3.9-4.4,6.7-3.7l99,26.5c3.1.8,4.8,4,3.9,7-8.1,25.4-18.1,55.8-28.8,87.9Z" fill="#999996"/>
    <path d="M1243.2,1244.7c8-49.7,16.9-106.3,25.3-159,.7-4.3,5.1-6.8,9.1-5.3,17.4,6.5,53.2,19.7,74.1,27.4,5.6,2,8.9,7.7,8,13.5-6.7,43.9-14.5,93.6-21.9,138.9-.7,4.3-4.7,7.2-9.1,6.5-26.5-4.3-55.9-9.1-79.1-12.9-4.3-.7-7.2-4.7-6.5-9Z" fill="#999996"/>
    <path d="M1187.5,622.2c16.8,4.8,33.5,9.7,50.3,14.6,44,10,105.1,32,147.3,36.1s4.1.6,6.1,1.1c22.6,5.9,45.5,12,68.1,18,5,.8,11.2,3.2,9.6,9.4l-13.7,51.1c-1,3.8-5.1,5.9-8.8,4.5-13.2-5.2-38.2-9.8-46.1-13.1-35.4-10.8-43.4-12.6-50.8,10.8-1.1,3.4-4.6,5.3-8.1,4.4l-178-47.8c-3.5-1-5.6-4.6-4.7-8.1l20.5-76.3c1-3.6,4.7-5.7,8.3-4.7Z" fill="#999996"/>
    <path d="M822.6,521.8c115.2,30.7,229,61.4,343.8,94.3,4.4,1.3,7,5.8,5.8,10.2-12.7,47.5-32.1,119.8-43.8,163.3-1.2,4.6-6.1,7.3-10.6,5.8l-229.9-73.2c-5.2-1.7-8.1-7.2-6.5-12.4l17.3-56.4c1.2-3.9-1.1-8.1-5.1-9.2l-103.2-27.8c-3.2-.9-5-4.2-4-7.3,4.5-13.7,16.1-49.7,25.9-81.8,1.4-4.2,5.8-6.7,10.1-5.5Z" fill="#999996"/>
    <path d="M602.6,561.1c4.4-14.3,8.8-28.5,13.2-42.7,5.4-14.8,8-31.3,14.9-45.3,6.2-3.5,18.7,3.7,26,4.5,49,13.1,97.2,25.9,145.8,38.8,3.1.8,4.8,4,3.8,7.1l-27.6,85.2c-.9,2.8-3.9,4.4-6.7,3.7l-165.6-44.3c-3-.8-4.8-4-3.9-7Z" fill="#999996"/>
    <path d="M569.3,668.3c9.4-30,18.7-59.9,27.9-89.8.9-2.9,3.9-4.5,6.7-3.7l165.3,44.3c3.1.8,4.8,4,3.8,7.1l-28.7,88.6c-.9,2.8-3.8,4.4-6.7,3.7l-164.6-43c-3.1-.8-4.8-4-3.9-7Z" fill="#999996"/>
    <path d="M535.6,775.3c9.5-29.9,18.9-59.8,28.3-89.7s3.8-4.5,6.7-3.7l164.4,42.9c3.1.8,4.9,4,3.9,7.1l-29.4,87.6c-1.2,3.6-5,5.7-8.7,4.7-28.3-7.4-139.9-36.4-161.3-41.9-3.1-.8-4.8-4-3.9-7Z" fill="#999996"/>
    <path d="M498.8,889.6c10.5-32.2,21-64.6,31.3-97,.9-2.8,3.9-4.4,6.7-3.7,33.6,9,137.6,37.1,163.2,43.7,3.1.8,4.9,4,3.9,7.1l-26.1,80.7c-.8,2.6-3.5,4.2-6.2,3.8l-168.5-27.3c-3.4-.5-5.4-4-4.4-7.2Z" fill="#999996"/>
    <path d="M630.1,1424.1c-44-19.1-83.9-29.7-115.9-38.2-60.1-18.4-113.1-23.9-95-86.7,20,3.9,35.8,3.7,54.7,4s17.5.9,26.2,2.3c23.5,3.8,47.1,7.7,70.9,11.5,3.7.6,6.2,4.1,5.6,7.8-3.1,19.3-7.2,44.3-10.1,62.6-.9,4.5,6.3,5.6,6.9,1.1,3-18.3,7-43.4,10.1-62.6.6-3.7,4.1-6.2,7.7-5.6,25,4,75.2,12.3,93.8,15.5s7.1,4.7,6.4,8.9c-2.4,16-9.2,51.8-12,68.6s-1.3,8.6-1.7,11.4.6,2.8,2,3.2h0c1.7.6,3.5-.5,3.8-2.3.5-2.8,1.3-6.9,2-10.5,5.1-27,9.7-56.3,11.6-69.5s4.3-6.7,8.3-6.1c14.8,2.2,50,7.5,83.9,12.3,3.7.6,6.2,4.1,5.6,7.7-2,12.6-4.9,30.1-6.9,42.4l-5.6,35.7c-1,6.5,3.3,12.7,9.8,13.9h0c6.7,1.2,13.1-3.3,14.2-10.1,3.3-20.5,9.7-60.9,12.5-78.2.6-3.7,4.1-6.2,7.7-5.6,27.5,4.3,54.7,8.6,82.1,12.9,3.7.6,6.2,4,5.6,7.7-5.2,33.6-11.8,76.8-16.8,109.3-.7,4.5,6.2,5.5,6.9,1.1,5.1-32.5,11.6-75.7,16.8-109.3.6-3.7,4-6.2,7.7-5.6,20.5,3.2,40.9,6.5,61.2,9.7,7.5,1.2,12.7,8,11.9,15.5-5,46.5-24.3,141.8-23.4,144.3-.4,2.1,0,3.8,1,5.5h0c-126.6-25.8-277.1-95.4-349.9-124.7Z" fill="#999996"/>
    <path d="M1200.3,1438.3c-1.9,15.5-8.8,55.7-20,72.3-31.3,46.2-103.9,55-188.6,40.5,1.1-.8,2.1-1.9,2.6-3.5,0,0,17.1-100.1,24.2-144.9.9-5.8,6.4-9.8,12.3-8.8,13.1,2.2,28,4.5,45,7.2,4.8.8,8,5.2,7.3,10-4.5,29.4-10.3,66.6-14.3,93.2-.3,1.9,1,3.7,2.9,4,1.9.3,3.7-1,4-2.9,4.1-26.6,9.8-63.7,14.3-93,.7-4.8,5.2-8.1,10.1-7.3,27.8,4.5,75.8,12.7,93.3,15.6,4.1.7,7.2,4.2,7.4,8.4s0,5.7-.4,9.2Z" fill="#999996"/>
    <path d="M1213.1,1387.9c-1,6.5-7.2,10.4-13.7,9.4-36.7-5.6-114.2-17.5-167.2-26.5-8.8-1.5-15.1-9.1-13.8-18,2.9-18.5,7.6-48.5,10.9-68.2.7-4.2,4.6-7,8.7-6.3,48.2,7.8,133.5,21.5,180.2,29,4.2.7,7,4.6,6.3,8.7-4.1,25.5-8,49.6-11.6,71.8Z" fill="#999996"/>
    <path d="M1377.6,1421.1c-.6,3.9-4.6,6.7-8.4,6-46.3-7.2-92.5-14.3-138.3-21.2-7.3-1.1-12.3-8-11.2-15.3,6-37.1,12.8-79.7,20.2-125.3.5-3.3,3.7-5.6,7-5.1,24,4,55,9,82.6,13.5,3.3.5,5.5,3.6,5,7-6.4,39.3-13,79.9-19,118-.8,4.5,6.3,5.6,6.9,1.1,6-38.1,12.6-78.7,19-118s3.7-5.6,7-5c14.4,2.4,32.6,5.6,45.8,7.9,7.6,1.5,4.3,10,3.5,15.3-4.7,27.4-9.1,54.9-13.5,81.6-2.2,13.4-4.4,26.6-6.6,39.5Z" fill="#999996"/>
    <path d="M1424.8,1167.3c-4.9,21.7-12.5,57-17.9,83-5.9,28.4-6.3,28.4-15.5,26.8-12.5-2.2-26.6-4.5-40.1-6.8-4.3-.7-7.2-4.8-6.5-9,7.3-45,15.2-94.1,21.8-137.8.8-5,5.9-7.9,10.6-6.2,15.9,5.9,19.4,7.2,39.4,14.7,14.7,5.5,12.9,14.9,8.3,35.3Z" fill="#999996"/>
    <path d="M1371.6,1090c12.2-52.3,32.6-120.5,48.8-182,1.2-4.6,6.1-7.3,10.6-5.8l56,18.1c1.9.6,3,2.6,2.5,4.6-4.3,15.8-8.6,32.2-12.6,49.5-19.4,70.4-34.9,129.2-37.5,135.7-2.9,7.3-8.3,9.7-14.4,7.5-19.5-7.2-32.9-12.1-48.3-17.9s-6-5.7-5.1-9.6Z" fill="#999996"/>
    <path d="M1261.6,1085.3c-11.5,71.8-23,143.8-33.3,208.2-.7,4.5-5,7.6-9.5,6.9-46.6-7.4-130.7-21-178.8-28.8-4.6-.7-7.6-5.1-6.8-9.6,13.6-77.6,25.6-164.1,40.1-238.8,1.8-9.1,11.1-14.7,19.9-11.8,23.1,7.4,59.5,22,77.5,28.7,3.8,1.4,5.7,5.5,4.3,9.3-7.4,20.8-16.8,45.9-19.6,66.4,0,0-20.1,124.9-20.1,124.9-.4,2.1,1.3,4.1,3.5,4.1,1.7,0,3.2-1.2,3.5-2.9l20.1-124.9c2.7-20.2,12.2-45.5,19.5-65.9,1.2-3.3,4.9-5.1,8.2-3.8l63,23.6c5.9,2.2,9.5,8.3,8.5,14.5Z" fill="#999996"/>
    <path d="M1122.8,810.6l-20.7,77.2c-.8,3-3.9,4.6-6.8,3.7,0,0-104.5-33.2-104.5-33.2-4.3-1.5-6.5,5.4-2.1,6.7l105.2,33.5c2.7.9,4.3,3.7,3.6,6.5-4.1,15.2-15.5,60.2-21.3,77.7-1.4,4.1-5.5,6.6-9.8,6-35.4-5.5-131.2-21.9-166.4-27.4-3-.5-4.9-3.4-4.2-6.3,2.5-9.6,5.8-19.4,8.8-28.8,3.7-1.7,14.2-8.1,20.7-27.6,4.1-12.2,31.8-99.9,33.3-105.4,2.9-10.5,3.1-17.8.6-22.2-1.2-2.1-3.1-3.6-5.4-4.2-11.2-3-17.8,8.1-21.4,18-2.4,6.4-29.6,85.9-34.1,106.6-3.3,15.3-2.6,23,0,31.8-3.3,10.4-7,21.1-9.6,31.7-.6,2.6-3.2,4.2-5.8,3.8l-74.2-12c-3.8-.6-6.1-4.4-4.9-8.1,20.4-61.6,46.5-138.7,67.9-203.5,1.7-5,7.1-7.8,12.1-6.2l234.9,74.5c3.2,1,5,4.3,4.1,7.5ZM951.9,773.7c.3,0,.6.2.9.7.5.9,1.9,4.8-1.3,16.5-1.2,4.3-28.8,91.8-33.2,105.1-4.2,12.5-10,18.6-13.7,21.3-1.4-6.4-1.4-12.9,1.1-24.6,4.2-19.9,31.5-99.5,33.8-105.6,3.3-9,7-13.5,11-13.5s1,0,1.5.2Z" fill="#999996"/>
    <path d="M492.3,917.5c.1-3.2,3.1-5.8,6.4-5.2,22.8,3.7,122,19.8,163.3,26.5,10,1.6,16.8,11,15.1,21-4.9,29.9-14.5,88-17.4,105.6-.7,4.2-4.7,7.1-8.9,6.4-38-6.3-125.7-20.8-169.3-28-5-.8-8.4-5.5-7.6-10.5,6.2-41.4,11.9-77.9,18.4-115.7Z" fill="#999996"/>
  </g>
  <g id="service">
    <g clip-path="url(#clippath-1)">
      <path d="M1086.8,945.2l-7.3-2.3-111.1-35.6" fill="none" stroke="#1a1a1a" stroke-linejoin="round" stroke-width="5"/>
      <path d="M1280.5,1006.9l-8.4-2.6-11.6-3.7-22.4-7.2-144.4-46.1" fill="none" stroke="#1a1a1a" stroke-linejoin="round" stroke-width="5"/>
      <path d="M1112.6,848.7l-115.1-36.5" fill="none" stroke="#1a1a1a" stroke-linejoin="round" stroke-width="5"/>
      <path d="M1306.8,910.4l-137.1-43.7-50.4-16" fill="none" stroke="#1a1a1a" stroke-linejoin="round" stroke-width="5"/>
      <path d="M1081.1,1285.3l-.5,3.2-6.6,41-.3,1.8-6.9,43.7" fill="none" stroke="#1a1a1a" stroke-linejoin="round" stroke-width="5"/>
      <path d="M1126.8,1024.1l-9.5,59c-.5,3.1-1.7,6.1-3.4,8.7h0c-1.3,2-2.2,4.2-2.6,6.6l-29.2,180" fill="none" stroke="#1a1a1a" stroke-linejoin="round" stroke-width="5"/>
      <path d="M1370.1,882.8l-38.9,148.2c-.2.7-.2,1.4-.2,2.1v.3c0,.9.4,1.8.8,2.7h0c.7,1.3,1.8,2.3,3.2,2.8l1.2.5c.2,0,.3.1.5.2l37.8,11.6" fill="none" stroke="#1a1a1a" stroke-linejoin="round" stroke-width="5"/>
      <path d="M1405.7,752.4l-33.7,123.7" fill="none" stroke="#1a1a1a" stroke-linejoin="round" stroke-width="5"/>
      <path d="M1218.3,1353.7c-51.1-7.9-104.1-16.1-144.6-22.4" fill="none" stroke="#1a1a1a" stroke-linejoin="round" stroke-width="5"/>
      <path d="M1143.7,759.6l189.9,52" fill="none" stroke="#1a1a1a" stroke-linejoin="round" stroke-width="5"/>
      <path d="M630.1,814l-10.8,32.8-4.3,13-1,3-16.6,49.4" fill="none" stroke="#1a1a1a" stroke-linejoin="round" stroke-width="5"/>
      <path d="M698.2,715.1l-12.7,40.1c-.9,2.9-4,4.5-6.9,3.6l-22.9-7.1c-3.7-1.2-7.7,1-8.8,4.8v.2c0,0-15,51.3-15,51.3" fill="none" stroke="#1a1a1a" stroke-linejoin="round" stroke-width="5"/>
      <path d="M447.2,1202.1l3.4.6,12.1,2,111.3,18.6" fill="none" stroke="#1a1a1a" stroke-linejoin="round" stroke-width="5"/>
      <path d="M549.7,730.8l97.2,26" fill="none" stroke="#1a1a1a" stroke-linejoin="round" stroke-width="5"/>
      <path d="M609.5,1015.2l6.2-40.2" fill="none" stroke="#1a1a1a" stroke-linecap="round" stroke-linejoin="round" stroke-width="5"/>
      <path d="M611.6,1015.6l-2.1-.4-119.3-19.2-6.4-1-3.5-.6" fill="none" stroke="#1a1a1a" stroke-linejoin="round" stroke-width="5"/>
      <path d="M583.3,623.4l124.3,33.9,51,13.9" fill="none" stroke="#1a1a1a" stroke-linejoin="round" stroke-width="5"/>
      <path d="M465.1,1098.3l2.8.7,127.5,20.9" fill="none" stroke="#1a1a1a" stroke-linejoin="round" stroke-width="5"/>
      <path d="M1357.3,1132.9l-3.6-1.2-26.2-8.4-11.8-1.8-3.2.4-1.5,1.9-15.3,91.8" fill="none" stroke="#1a1a1a" stroke-linejoin="round" stroke-width="5"/>
      <path d="M1084.2,1449.5l28.1,4.5c2.2.3,4,1.8,4.8,3.8l1.6,4.1c.9,2.2,2.8,3.8,5.2,4.2l69.7,12.3" fill="none" stroke="#1a1a1a" stroke-linejoin="round" stroke-width="5"/>
      <path d="M949.1,969.1l5.8-17.1,26-85.4,18.3-60.1c1.4-4.7-1.2-9.6-5.8-11.1l-36.6-12" fill="none" stroke="#1a1a1a" stroke-linejoin="round" stroke-width="5"/>
      <path d="M933.9,781l-27.3-8.3c-6.9-2.1-14.3,1.6-16.7,8.5l-58,169" fill="none" stroke="#1a1a1a" stroke-linejoin="round" stroke-width="5"/>
      <path d="M614,862.8l-84.1-22.1-14.1-3.8" fill="none" stroke="#1a1a1a" stroke-linejoin="round" stroke-width="5"/>
      <path d="M698.6,879l21.4,3.8,52.6,9.4,36.7,6.6" fill="none" stroke="#1a1a1a" stroke-linejoin="round" stroke-width="5"/>
      <path d="M689.9,883.1l-23.7-7.4-51.2-15.9" fill="none" stroke="#1a1a1a" stroke-linejoin="round" stroke-width="5"/>
      <path d="M1168.2,668.1l184.5,48.6c.3,0,.7.2,1,.2h0c1.1.2,2.1.3,3.2.3h.6c.7,0,1.4-.1,2-.2l2.5-.4,3.2-.4h0c3.3.2,6.6.7,9.8,1.6l11.4,3.1,20.1,5.4,52.1,13.8" fill="none" stroke="#1a1a1a" stroke-linejoin="round" stroke-width="5"/>
      <path d="M1475.8,910.4c4.1-16.2,15.4-53.3,17.8-67.1-.5-2.4-2.4-11.4-1.9-13.9,0,0,15.5-56.1,15.5-56.1" fill="none" stroke="#1a1a1a" stroke-linecap="round" stroke-linejoin="round" stroke-width="5"/>
      <path d="M1392.1,1011c8.3,2.5,32.6,10.1,39.1,12.1s1.1.3,1.7.3h.5c.8,0,1.6-.2,2.3-.5h0c1.4-.6,2.6-1.8,3.1-3.3,4-10.4,8.4-34.8,12.5-42.4,2.5-4.5,7.9-13.5,10.7-17.9,2.9-3.6,10.4-36.3,13.3-47.3" fill="none" stroke="#1a1a1a" stroke-linejoin="round" stroke-width="5"/>
      <path d="M960.9,1448.2l26,4.6,7.3,1.2" fill="none" stroke="#1a1a1a" stroke-linejoin="round" stroke-width="5"/>
      <path d="M861.8,1363.1l-9.7,63.2-6.4,41.2c-.3,2,.5,3.9,2.2,5.1l1.3.9c2.5,1.7,5.2,3,8.2,3.7l40.5,10.1" fill="none" stroke="#1a1a1a" stroke-linejoin="round" stroke-width="5"/>
      <path d="M1357.4,1121.9c-14.8-5.2-64.9-22.7-74.3-25.9s-1.6-.4-2.4-.4h0c-1.1,0-2.1.2-3.1.7s-.3.1-.4.2c-2,.9-4.2,1.3-6.4,1.1s-2.6-.4-3.9-.6" fill="none" stroke="#1a1a1a" stroke-linejoin="round" stroke-width="5"/>
      <path d="M1177,1090.4c9.9,1,25.3,1.9,35.1,3.7,11.3,1.7,27.1,6.5,38.5,8.3l3.7.6,4.2.6" fill="none" stroke="#1a1a1a" stroke-linejoin="round" stroke-width="5"/>
      <path d="M1169.1,1089c2.7.5,5.6,1.1,7.9,1.5" fill="none" stroke="#1a1a1a" stroke-linejoin="round" stroke-width="5"/>
      <path d="M1142.3,1241.7s90.5,14.6,90.5,14.6" fill="none" stroke="#1a1a1a" stroke-linejoin="round" stroke-width="5"/>
      <path d="M986.9,1452.8l9.5-64.4" fill="none" stroke="#1a1a1a" stroke-linejoin="round" stroke-width="5"/>
      <path d="M567.8,1261.1l56.5,9.4" fill="none" stroke="#1a1a1a" stroke-linejoin="round" stroke-width="5"/>
      <path d="M604.3,1061.6l5.4-47.7" fill="none" stroke="#1a1a1a" stroke-linejoin="round" stroke-width="5"/>
      <path d="M587.3,1167.6l.7-4.1,7.5-43.5,7.2-44.9.7-4.1" fill="none" stroke="#1a1a1a" stroke-linejoin="round" stroke-width="5"/>
      <path d="M561.1,1298.5l1.1-6.4,11.8-68.8,1.7-2c1.6-1.9,2.7-4.2,3.2-6.7l6.4-35.6.8-4.5" fill="none" stroke="#1a1a1a" stroke-linejoin="round" stroke-width="5"/>
      <path d="M521,987l-26.7-4.4-1.3.2-.8,1-2,12.2" fill="none" stroke="#1a1a1a" stroke-linecap="round" stroke-linejoin="round" stroke-width="5"/>
      <path d="M572.1,1390.6c.7.6,1.5,1,2.5,1.2l2.3.6,66.5,11.2" fill="none" stroke="#1a1a1a" stroke-linecap="round" stroke-linejoin="round" stroke-width="5"/>
      <path d="M508.3,1306.7l-.8,5-5.5,35.7-1,6.5-.3,2.6c-.6,4.4,2.4,8.4,6.7,9.1,14.9,2.5,47.2,8,60.8,10.4" fill="none" stroke="#1a1a1a" stroke-linejoin="round" stroke-width="5"/>
      <path d="M852.1,1426.3l53.8,8.6" fill="none" stroke="#1a1a1a" stroke-linejoin="round" stroke-width="5"/>
      <path d="M772.7,892.2l31.8-94.3,16.7-50.4" fill="none" stroke="#1a1a1a" stroke-linejoin="round" stroke-width="5"/>
      <path d="M773.3,734.9l-13.6,44.3c-.9,2.8.7,5.8,3.5,6.7,11.9,3.9,41.3,11.9,41.3,11.9" fill="none" stroke="#1a1a1a" stroke-linejoin="round" stroke-width="5"/>
      <path d="M1272.4,1362.1l8.4-49.9,47.4,7.7" fill="none" stroke="#1a1a1a" stroke-linejoin="round" stroke-width="5"/>
      <path d="M1074.2,584.9l-24.7,86.8" fill="none" stroke="#1a1a1a" stroke-linecap="round" stroke-linejoin="round" stroke-width="5"/>
      <path d="M1084.7,676.4l8.9-33.5,8.3-31.8" fill="none" stroke="#1a1a1a" stroke-linecap="round" stroke-linejoin="round" stroke-width="5"/>
      <path d="M1093.6,642.9l32.7,8.9,36.5,9.9" fill="none" stroke="#1a1a1a" stroke-linejoin="round" stroke-width="5"/>
      <path d="M1135.7,615.6l-9.4,36.2-10.2,39.6" fill="none" stroke="#1a1a1a" stroke-linecap="round" stroke-linejoin="round" stroke-width="5"/>
      <path d="M529.9,840.6l.9-2.7,11.1-35.3,3.4-11.4" fill="none" stroke="#1a1a1a" stroke-linejoin="round" stroke-width="5"/>
      <path d="M666.2,875.7l.7-12.9c0-.2,0-.4,0-.7h0c-.2-.9-.7-1.6-1.5-2h0c-.2-.1-.3-.2-.5-.2l-37.2-11.9-2.9-.4h-2.8c0-.1-2.7-.8-2.7-.8" fill="none" stroke="#1a1a1a" stroke-linejoin="round" stroke-width="5"/>
      <path d="M559.8,739.8l-3.6,11.2-4.6,14.4-2.6,8.3" fill="none" stroke="#1a1a1a" stroke-linecap="round" stroke-linejoin="round" stroke-width="5"/>
      <path d="M544.4,747.5l11.8,3.5" fill="none" stroke="#1a1a1a" stroke-linejoin="round" stroke-width="5"/>
      <path d="M551.6,765.4l-11.7-3.8" fill="none" stroke="#1a1a1a" stroke-linejoin="round" stroke-width="5"/>
      <path d="M1147.8,717.1l-62.4-19.1-18.2-5.5-11.1-3.4h-1.6l-1.4.9-1.1,1.4-13,41v1.3c.1,0,.8.5.8.5l9,2.6h1.3c0,.1,1.3-.2,1.3-.2l1-1.2,1-1.9,3.5-6.8.9-1.9.8-1.8,8.6-30.5" fill="none" stroke="#1a1a1a" stroke-linejoin="round" stroke-width="5"/>
      <path d="M1228.8,1187.8l-18.8-3.1-8.3,50.2,18.7,3.1,8.4-50.2" fill="none" stroke="#1a1a1a" stroke-linejoin="round" stroke-width="5"/>
      <path d="M970.9,748.8l1.1-3.7" fill="none" stroke="#1a1a1a" stroke-linejoin="round" stroke-width="5"/>
      <path d="M971.9,745.1l2.3-1.3,1.1-1.6,1.9-6.3v-2.6c-.1,0-1-2.3-1-2.3l-2.3,1.4-.7,1.3-.5.8-1.8,6.3v1.7c-.1,0,1,2.6,1,2.6" fill="none" stroke="#1a1a1a" stroke-linejoin="round" stroke-width="5"/>
      <path d="M976.2,731l6.9-21.3,3-9.3,3-10,5-17.4-50.6-13.8-4.1,14.8" fill="none" stroke="#1a1a1a" stroke-linecap="round" stroke-linejoin="round" stroke-width="5"/>
      <path d="M986.1,700.4l10.6,3,8.2,2.3,17.6,4.9,7.2-28.3-17.8-4.6-17.8-4.7" fill="none" stroke="#1a1a1a" stroke-linejoin="round" stroke-width="5"/>
      <path d="M1170.8,915.5l1.3-4.2.6-2.1c0-.1,0-.3.1-.4l.4-1c.2-.5.5-1,.9-1.5h0c.6-.6,1.3-1.1,2.2-1.3h0c.3-.1.6-.2.9-.2l4.1-.3c.7,0,1.3-.3,1.8-.7h0c.2-.2.4-.4.5-.6l.6-.8c.2-.3.4-.7.5-1.1l3-11c0-.3.1-.7.1-1h0c0-.9-.4-1.7-1-2.3h0c-.3-.3-.6-.5-1-.6l-17.2-6.7c-.4-.1-.7-.4-1-.7h0c-.5-.6-.7-1.2-.7-1.9h0c0-.2,0-.5,0-.7l1.3-4.7,1.2-5.1" fill="none" stroke="#1a1a1a" stroke-linejoin="round" stroke-width="5"/>
      <path d="M1521.3,768.5l-58.8-16.1" fill="none" stroke="#1a1a1a" stroke-linejoin="round" stroke-width="5"/>
      <path d="M704.9,594.6l27.1-88.9,2.3-7.2" fill="none" stroke="#1a1a1a" stroke-linejoin="round" stroke-width="5"/>
      <path d="M622.1,572.4l8.4-26.5c1.6-4.9,4.1-9.4,7.5-13.3l11.3-13.1c2.5-2.9,4.3-6.2,5.5-9.8l9.5-30.2" fill="none" stroke="#1a1a1a" stroke-linejoin="round" stroke-width="5"/>
      <path d="M895.4,646.5c2.4-3,3.4-6.3,4.9-9.8s5-12.1,5-12.1c7.1-18.7,18.5-53,25-74" fill="none" stroke="#1a1a1a" stroke-linejoin="round" stroke-width="5"/>
      <path d="M1238.9,633.4l-11,41" fill="none" stroke="#1a1a1a" stroke-linecap="round" stroke-linejoin="round" stroke-width="5"/>
      <path d="M667.4,594.4l-8.6,28.6" fill="none" stroke="#1a1a1a" stroke-linecap="round" stroke-linejoin="round" stroke-width="5"/>
      <path d="M1056.5,1300.4l-4.4,25.5-3.6,21" fill="none" stroke="#1a1a1a" stroke-linecap="round" stroke-linejoin="round" stroke-width="5"/>
      <path d="M1074,1329.5l-21.9-3.6" fill="none" stroke="#1a1a1a" stroke-linejoin="round" stroke-width="5"/>
      <path d="M1013.4,596.7l28.2,7.2,5.4-21.2" fill="none" stroke="#1a1a1a" stroke-linejoin="round" stroke-width="5"/>
      <path d="M928.6,589.7l66.3,18.1" fill="none" stroke="#1a1a1a" stroke-linejoin="round" stroke-width="5"/>
      <path d="M765.3,673l109.4,30.2" fill="none" stroke="#1a1a1a" stroke-linejoin="round" stroke-width="5"/>
      <path d="M933.7,571.8l66,17.4-4.8,18.6-4.8,18.4-66.7-18.3,5.2-18.2,5.1-17.9-3.7-1.2-5.6-1.5" fill="none" stroke="#1a1a1a" stroke-linejoin="round" stroke-width="5"/>
      <path d="M1493.2,846.5l-52.1-14.5" fill="none" stroke="#1a1a1a" stroke-linejoin="round" stroke-width="5"/>
      <path d="M1381.8,1049.7l5.4,1.4,10.4,2.9,17.4,4.4,7.9-29.5-17.4-4.7-7.9,29.8" fill="none" stroke="#1a1a1a" stroke-linejoin="round" stroke-width="5"/>
      <path d="M1376.5,1359.9l5.1-31.6-42.8-6.8-3.7-.6" fill="none" stroke="#1a1a1a" stroke-linejoin="round" stroke-width="5"/>
      <path d="M683.3,1428l2.4.5,31,5.8c.4,0,.7,0,1.1,0h.2c.8-.2,1.5-.7,1.9-1.4h0c.2-.3.3-.6.3-.9l5-24c0-.3.2-.6.3-.9h0c.6-1.2,1.7-2,3-2.2h0c.4,0,.8,0,1.2,0l54.4,9.2,2,.3" fill="none" stroke="#1a1a1a" stroke-linejoin="round" stroke-width="5"/>
      <path d="M462.6,1204.7l-6,35.1-.5,4.2c-.3,2.6-.5,5.3-.5,8v3.3c0,0-.3,19.2-.3,19.2v5.6" fill="none" stroke="#1a1a1a" stroke-linejoin="round" stroke-width="5"/>
      <path d="M1000.3,1511.9l68.2-3.8,1.1-.9" fill="none" stroke="#1a1a1a" stroke-linejoin="round" stroke-width="5"/>
      <path d="M914.3,1425.7l48.7,8.6-2.1,13.8-8.5,56.5,31.6,7" fill="none" stroke="#1a1a1a" stroke-linejoin="round" stroke-width="5"/>
      <path d="M1205.9,1351.8l-2.1,12.4" fill="none" stroke="#1a1a1a" stroke-linecap="round" stroke-linejoin="round" stroke-width="5"/>
      <path d="M1320.1,1369.6c-28.1-4.4-58.7-9.2-94.5-14.7" fill="none" stroke="#1a1a1a" stroke-linejoin="round" stroke-width="5"/>
      <path d="M1376.5,1359.9l-3.1,17.9-41.5-6.4-4.8-.7" fill="none" stroke="#1a1a1a" stroke-linejoin="round" stroke-width="5"/>
      <path d="M1274.9,1151.3l3.9-28-10.3-1.4-2.3-.3" fill="none" stroke="#1a1a1a" stroke-linecap="round" stroke-linejoin="round" stroke-width="5"/>
      <path d="M704.7,667.9l2.8-10.6" fill="none" stroke="#1a1a1a" stroke-linecap="round" stroke-linejoin="round" stroke-width="5"/>
      <path d="M730.7,674.9l-26-7-27.3-7.2" fill="none" stroke="#1a1a1a" stroke-linecap="round" stroke-linejoin="round" stroke-width="5"/>
      <path d="M742.8,831.5l11.9-37" fill="none" stroke="#1a1a1a" stroke-linecap="round" stroke-linejoin="round" stroke-width="5"/>
      <path d="M708,859.3l17.5,4.8,21.1,6.1" fill="none" stroke="#1a1a1a" stroke-linecap="round" stroke-linejoin="round" stroke-width="5"/>
      <path d="M720,882.8l5.5-18.7" fill="none" stroke="#1a1a1a" stroke-linejoin="round" stroke-width="5"/>
      <path d="M462.6,1130.6l11.5,2.1" fill="none" stroke="#1a1a1a" stroke-linecap="round" stroke-linejoin="round" stroke-width="5"/>
      <path d="M524.8,1358.1l-13.5-2.4-10.2-1.8" fill="none" stroke="#1a1a1a" stroke-linejoin="round" stroke-width="5"/>
      <path d="M523.2,1368.3l1.6-10.2,4.3-26.9-13.6-2.2-4.2,26.7" fill="none" stroke="#1a1a1a" stroke-linejoin="round" stroke-width="5"/>
      <path d="M677.2,816.6l9.5-31.3" fill="none" stroke="#1a1a1a" stroke-linecap="round" stroke-linejoin="round" stroke-width="5"/>
      <path d="M949.8,739.4l5.3-16.5" fill="none" stroke="#1a1a1a" stroke-linecap="round" stroke-linejoin="round" stroke-width="5"/>
      <path d="M964.4,683.6l14.8,4.1,9.9,2.7" fill="none" stroke="#1a1a1a" stroke-linecap="round" stroke-linejoin="round" stroke-width="5"/>
      <path d="M1012,677.7l-7,28" fill="none" stroke="#1a1a1a" stroke-linejoin="round" stroke-width="5"/>
      <path d="M1016.8,583.4l2.3-8.3" fill="none" stroke="#1a1a1a" stroke-linejoin="round" stroke-width="5"/>
      <path d="M1013.4,596.7l3.4-13.3" fill="none" stroke="#1a1a1a" stroke-linejoin="round" stroke-width="5"/>
      <path d="M1041.6,604c7.4,3,14.4-5,17.8-9.6,1.1-1.2,2.2-6.2,2.6-7.7" fill="none" stroke="#1a1a1a" stroke-linejoin="round" stroke-width="5"/>
      <path d="M1001.5,640.5l11.9-43.7" fill="none" stroke="#1a1a1a" stroke-linecap="round" stroke-linejoin="round" stroke-width="5"/>
      <path d="M1431.8,865.8c7.4,1.2,18.8,8.6,22.4-2.3,5.4-13-9.9-11.9-17.7-15.1" fill="none" stroke="#1a1a1a" stroke-linejoin="round" stroke-width="5"/>
      <path d="M1299.3,690.1l13.8,3.7,9.9-38.4" fill="none" stroke="#1a1a1a" stroke-linecap="round" stroke-linejoin="round" stroke-width="5"/>
      <path d="M1332.2,1026.4l-42.6-14.9" fill="none" stroke="#1a1a1a" stroke-linecap="round" stroke-linejoin="round" stroke-width="5"/>
      <path d="M1264.8,1029l7.3-24.7" fill="none" stroke="#1a1a1a" stroke-linecap="round" stroke-linejoin="round" stroke-width="5"/>
      <path d="M1238,993.4l-4.5,13.7,22.4,7.3,4.5-13.8" fill="none" stroke="#1a1a1a" stroke-linejoin="round" stroke-width="5"/>
      <path d="M1197.5,1032.8l3.9-10.9-13.6-4.6c-.3,0-.5-.3-.7-.5h0c-.3-.4-.4-.8-.3-1.3,1-4.3,6.8-23.8,7.9-25.1,2.1-3.6,11.6,1.7,14.4,2,1.8.5,3.1,2.6,2.5,4.5l-6.4,21.1c-.4,1.2-1,2.2-1.8,3.1h0s-1.9.8-1.9.8" fill="none" stroke="#1a1a1a" stroke-linejoin="round" stroke-width="5"/>
      <path d="M1244.8,1190.2l-6.3-.9-9.7-1.5" fill="none" stroke="#1a1a1a" stroke-linejoin="round" stroke-width="5"/>
      <path d="M1343.7,1223.8l-48.1-8.2-45.3-8" fill="none" stroke="#1a1a1a" stroke-linejoin="round" stroke-width="5"/>
      <path d="M1405.3,1128l-2,16.3c-.1.8,0,1.6.2,2.3h0c.2.8.7,1.6,1.3,2.2l1.1,1.2c1.2,1.3,2.9,3,2.4,5.8-.9,5.2-9.8,61.1-11.2,70-.1.8-.4,1.5-.9,2.2l-.3.4c-.7,1.1-1.9,2-3.2,2.3h0c-.8.2-1.6.3-2.4.1l-36.4-5.6-3.5-.6" fill="none" stroke="#1a1a1a" stroke-linejoin="round" stroke-width="5"/>
      <path d="M1138.9,915.6l-5.8,17.2" fill="none" stroke="#1a1a1a" stroke-linecap="round" stroke-linejoin="round" stroke-width="5"/>
      <path d="M1504,832l17.3-63.5,3.1-10.9c.4-1.5.7-3,.9-4.5h0c.2-1.7.3-3.4.2-5.1l-.4-10.6c0-.7-.2-1.3-.5-1.9h0c-.5-.8-1.2-1.4-2-1.8l-1.8-.8" fill="none" stroke="#1a1a1a" stroke-linecap="round" stroke-linejoin="round" stroke-width="5"/>
      <path d="M1407,678.1l-4.9,19.3" fill="none" stroke="#1a1a1a" stroke-linejoin="round" stroke-width="5"/>
      <path d="M1413.4,700.5l16.4,4.4" fill="none" stroke="#1a1a1a" stroke-linecap="round" stroke-linejoin="round" stroke-width="5"/>
      <path d="M1386.4,720.8l6.7-25.8" fill="none" stroke="#1a1a1a" stroke-linejoin="round" stroke-width="5"/>
      <path d="M1402.1,697.4l-9-2.4-20.7-5.6-7.2,26.7" fill="none" stroke="#1a1a1a" stroke-linejoin="round" stroke-width="5"/>
      <path d="M1406.5,726.2l3.5-12.9,3.4-12.8-11.3-3.1" fill="none" stroke="#1a1a1a" stroke-linejoin="round" stroke-width="5"/>
      <path d="M826.2,526l-8.5,26.4-17,54.7" fill="none" stroke="#1a1a1a" stroke-linecap="round" stroke-linejoin="round" stroke-width="5"/>
    </g>
  </g>
  <g id="paths1" data-name="paths">
    <g clip-path="url(#clippath-2)">
      <path id="paths-compound" d="M1031,1001.5c8.3,1.5,8.9,14-3,20.3s-8.1,6.7-10.5,10.2c-36.2-19.3-74.8,7.6-117.7-22.6-5.3-4-11.1-6.4-18.1-7.5s-2.3-1.7-1.8-3c2.2-6.3,4.9-20.8,17.9-18.8s-5.6-6.4-20.5-8.8c-1.2-.2-12.4,2.9-10.9,3.5,4.6,1.8,14.6,5.6,8.4,24.2-.3,1-1.4,1.6-2.4,1.3-50.2-11.4-94.2-28.9-145.7-16-3.1.8-6.5-1-7.6-3.9-1.7-4.4-3.6-8.1-3.5-12.2.5-15.4,10.1-16.4,10.1-16.4,0,0-21-8.9-26.8-4-8.7,7.4-5.6,16.5-5.3,23.4,1.8-2.9,7-10.5,12.6-5.6s7.4,15.2,10.4,23.5c5.2,15.6,9.5,35.2,17.4,45.3s.4,1.2,0,1.7c-13.3,17-13.8,39.8-16.2,60.5s-1.7,6.5-3.8,9.2c-7.5,9.5-16.8,16.9-23.3,26.9s-.9,1.3-1.3,1.9-.8.5-1.1.2c-3.5-2.5-19.3-14.2-18-21.7-.6,3.6-5.6,33.7-5.8,34.8,1-7.1,8.2-13.9,20.3-10.4s2.8,2.1,2.4,3.4c-6.8,27.8,7.5,64.9,17.4,91.3s.2,2.9-.8,4c-17,18.6-32.3,38-46.9,52.7-5,5-16.9,6.4-15.3-2.7,0,0-7.8,14.8-5.3,20.3,8.3,18,31.9,7.2,27.9,6.4-10.6-2-4.3-19,2.7-27.8,5.7-7.1,24.5-28,39.7-44.6.5-.5,1.4-.4,1.7.3,11.1,23,29.3,48.5,53.9,60.2,20.5,3.9,41.6,5,62.1,10.2-10.3,13.5-8.3,23.5-23.3,24.4,3.6.3,28.8,4,33.5,4.6-9.5-.9-18.3-11.7-5.2-27.9,9.9,2.2,19.9,4.6,29.7,6.6,3,3.2,5.3,4.7,10.2,6.8s14.2,4.7,23.6,5.4c14.2,1,31.1.1,48.2-1.4s1.3.9.7,1.5c-6.4,7.1-.5,11.9,2,6.6s6.8-7.4,8.6-6.9,1.7.4,2.6.7,1.7,1.3,1.5,2.4c-1,7-.9,22.6-1.1,28-.1,3.2,5,3.4,5,.1.2-4.6.2-21.1,1-27.1s.7-1,1.3-.8c20.3,7.8,23.8,18.8,21.5,32.7s8.9,2.3,12.6-.7,9.3-10,8.3-11.6c-.4-.6-6.9-6.3-15.1-11s-5.4-5.1-5.9-8.8c-2.5-20.7,4.4-43.5,12.3-63.2s.8-.8,1.3-.6c5.2,1.5,18.7,7,19.7,2.1.2-1.4-.7-2.6-2.1-2.8-4.6-.7-11-2.1-15.9-3.8s-.8-.7-.7-1.3c2-7.8,2.1-19.1,1.6-24.7.2-11.6-7.6-30.2,0-39.5,2.9-3.4,5.2-8.3,6.2-12.1s1-1.5,1.9-1.4c3.8.2,12.1,1.2,16.6,8.6s7.4-10.2,7.3-12.7c-.3-5.9-3.9-9.1-4.3-6.8-1,6.4-14.3,6-19.5,5.9s-1.6-.6-1.8-1.5c-.9-3.9-3.3-7.1-6.3-9.8,17.8-34.8,17.3-76.7,10.1-112.3,6.7-10,6.4-22.6,17.1-30.7,8-6.5,26.2-6.1,25.5-1s11.6-6.4,3.8-21-24.1-8.6-26.1-4.6ZM873.5,1008.3c-2.7,25.5-1.7,50.4,7.6,74.8-29.3,10.6-51.8,35.3-75.5,54.4-44.5-46-22-50.5-36.7-77.8s-3.6-5.4-6.1-7.5c-6.6-5.5-13.6-11.1-20-16.6s-.7-1.5-.2-2.2c49.1-64.9,61.4-42.5,128.6-28.2,1.5.3,2.5,1.7,2.3,3.2ZM948.4,1200.6c-2.3,9.9-3.4,20.4-2.9,30.4-10.2,5.1-7.1,15.5-4.8,19.6-.9.4-1.8.9-2.5,1.4-10.1-7.8-19.1,1.5-27.5,4.7l-1.6-6.8c6.1-6.2,6-17.5,9.6-24.7,4-9.3,11.1-18.4,11.9-28.8,7.1,1.9,13,3.3,17.8,4.2ZM992.5,1217.9c2,12.8,4.1,24.3,2.8,38.1s-.6,1.2-1.3,1.3c-3.6.3-7.8.2-11.3,0-.8-10.4-4.3-22.8-17.4-20.3-2.7-5.4-9.2-7.8-15.1-7.1-.2-9.4.7-19.1,3-28.4,13.1-.9,25.7,2.7,37.7,8.2s1.1,1,1.1,1.7c0,2.1,0,4.3.4,6.6ZM993.3,1266.7c-3,6.7-5.6,13.8-7.8,21s-1.1,1.5-2.1,1.4c-17.7-1.2-21.5-11.6-24.9-26.3,4.2.8,6.4,4.2,8.8,7.4,6,6.7,16.8.4,15.6-8.1,2.7.2,5.7.3,8.6.3s2.7,1.5,2.2,3-.3.9-.4,1.3ZM897.4,1302.8c-8.5-4.2-18.7-11.5-27.3-15.8,1.5-4.3,4.2-10.2,6.5-14.1,11.2-5.7,14.9-16.4,28.1-20.1,4.1,17.2,9.8,39,16.5,55.9s-.6,2.3-1.7,2c-7.6-2-16.3-5.3-22-7.9ZM857.3,1313.4c-2.6-.6-5.2-1.1-7.9-1.7l.2-1c2.6.4,5.4,0,7.7-.8,0,1.3,0,2.5,0,3.5ZM851.6,1289.4c6.6-1,7.8,9.6,1.2,10.1-6.5,1-7.8-9.5-1.2-10.1ZM867.4,1280.3c0,.2-2.2,5.6-2.2,5.8-1.5-2.3-3.7-4.2-6.2-5.4l1.4-5c3.1.2,6.7,0,9.4-.5l-2.4,5.1ZM854.2,1279.2c-3.3-.5-6.9.2-9.7,1.7.6-3.3,1.1-7,1-10.6,2.9,2,6.1,3.5,9.9,4.5l-1.2,4.3ZM927,1282.8c-5,2.8-7.3,4.7-7.6,5l-5.4-18h8.7c3.2,0,3.2-5,0-5,0,0-10.1,0-10.1,0l-.7-3.2c7-1.6,18-13.6,25-3.7,1,2.5,2.4,6.2,5.5,7.4.7,4.5.4,7.5-2.1,11.7-3.4,1.5-10.6,4.3-13.3,5.8ZM978,1259.9c.8,4.4-2,10.9-6.9,7-3.1-4.9-7.8-9-13.7-9.4-.4-1.6-.7-3.3-1.1-5,3.6-3,5.5-7.3,8.9-10.4,10.5-3.5,12.5,8.4,12.8,17.8ZM944.8,1260.8c-1.5,0-2.6-3-3.4-5,2.8-2,7.8.5,10.2-.9.3,1.1.5,2.2.7,3.3-2.3.9-5.1,2.1-7.5,2.6ZM956.9,1244.2c-.7,1-1.4,2-2.1,2.8-1.4-4.2-3-8.7-3.7-12.2,3.9-.4,8.2.9,10,4.4-1.7,1.6-3,3.4-4.2,5.1ZM949.7,1247.6c.2.8.5,1.7.7,2.5-1.2.4-2.6.4-4.3.2-3-4.8-4.1-11.6.2-14.1,1,4.6,2.6,9.1,3.5,11.4ZM947.3,1273.2c.9-.3,3.3-1.1,4.4-3.4s.4-4.7,0-5.9h0c.6-.3,1.2-.5,1.8-.8.6,2.8,1.3,5.6,2.1,8.2s0,.7-.4.8l-8.3,2.7c.2-.5.3-1.1.4-1.6ZM925.6,1194.2c.2,10.2-7.6,19.4-11.4,28.7-4,7.1-3.5,20.3-10.3,24.8-9.3,2.5-14.7,7.8-19.4,12.5-6.3,6.2-11.8,11.6-25.6,10.3-27.1-5.5-32.9-48.1-34.4-72.6l16.7.7c-.3,3.4-.5,12.4-.6,15.9-.1,3.2,4.9,3.4,5,.1,0-4.9.6-14.2.7-19,.4-25.5,19.1-11.3,5.2-33.4,28.2-4.5,65,3.8,74.1,32ZM815.6,1201c-.4-3.8-2.5-8.1-5.7-11.3s-.4-1,0-1.3c3.2-2.2,8.4-3.9,12.2-3.8-1.7,5.3-2.6,10.8-2.6,16.4h-3.9ZM805.5,1214.4c-4.6,3.3-9.2,3.7-13,2.4,3-5.1,9.8-16.7,13.9-23.4,7,6.9,4.6,16-.9,21ZM786.3,1212.9c-10.6-10.2,2.5-29.3,16-22.4-4.3,6.9-11.3,18.8-14.3,24-.6-.5-1.2-1-1.7-1.6ZM808.3,1147.4c1.5,1.6,6.4,5.1,8.1,6.7,2.5,2.1,5.7-1.8,3.2-3.9-3.1-2.6-7.8-6.1-10.4-9,7.4-6.7,15.3-13.3,23.3-19.8,7,11.5,9.4,24.3,12.7,37.2-10.2,3.9-17.1,11.7-21.2,21.1-5.6-.6-14,1.8-18.2,5.7s-1.2.6-1.8.3c-5.8-2.6-13-2.3-19.5,2.7-4.3-3.4-8.8-7-13.3-10.7,12.6-10.8,22.6-22.3,34.3-33.2.9,1,1.9,1.9,2.8,2.8ZM884.1,1157.5c-3.8-.7-7.8-1.2-11.9-1.4,0-1.5.6-4.4,1-5.9l11.8,2.6s-.8,3.9-.9,4.7ZM868.8,1146.8c-.5,2.2-1.6,7-1.6,9.2-5.6,0-11.3.4-17.1,1.3-1.9-6.9-3.5-14.8-5.6-21.6,8.9-1.6,18.6-2.1,27.4-1.4l-2.9,12.4ZM844.6,1180.6c-2.1,4.1-2.9,9-3.2,13l-16.3-.7c2.5-14.8,11.2-25.3,21.5-29.5,1.3,2.9,3.7,6.8,5.1,9.6-2.4,2.4-5.5,4.4-7,7.5ZM888.8,1158.6c.3-.7.9-4.2,1-4.7l11.6,2.4c-.3,1.6-1,4.3-1.6,5.8-3.5-1.5-7.2-2.7-11-3.6ZM902.5,1151.5l-28.3-6,2.5-10.5c3.6.5,7.4,1.2,11.3,2-.4,2.4-2.3,6.2,1.1,7.1,3.4.5,3.1-3.8,3.8-6.1,4,.8,8,1.7,12,2.5l-2.4,11.1ZM889,1132c-15.4-3.4-30.7-4-46.4-1-1.7-4.1-4-9-6.3-12.9,14.5-11.7,28.4-24.6,46.4-30.3,2.7,13.7,9.2,29.6,6.3,44.1ZM724.7,997.4c-1.1-3.7,1-7.5,4.7-8.5,6.3-1.6,16.4-3.8,28-4.7s20.4.4,27.9,1.4.9,1.1.2,1.4c-19.7,9.4-33.6,26.6-47,43.5s-.8.3-1,0c-4.1-5.8-9.8-23.5-12.8-33.1ZM723.4,1092.1c2.4-18.2,3.2-38.7,14.7-52.9s.9-.4,1.2-.1c6.3,5.4,13.1,11,19.7,16.4s8.2,9.5,9.4,15.7,1,7.4,1.5,10.8c1,24.7,14.9,39.9,32.1,58.9-11.8,11-21.9,22.5-34.7,33.5-15.4-12.2-27.7-28-33.9-46.7-2.9-7-7.6-15.9-10.2-23.1s-.8-3.5-.6-5.2l.8-7.4ZM703.3,1125.3c4.3-4.6,9.3-9.6,13.9-15.3.8-1,2.5-.8,3,.4,2.6,6.3,6.2,13.3,8.7,19.3,3.9,10.7,10.6,24.2,18.7,32.9s.1,1.5-.7,1.5c-7.8-.1-12.2-5.1-21.1-3.9-8.2,1-17.4,2.1-25.7-.5-2.3-.7-4.1-2.7-4.5-5.1-.7-3.8-1.4-8.2-2.3-11.8s-.2-3.2.4-4.6c2.1-4.7,5.9-8.9,9.7-13ZM695.3,1187c-1.7-7.5-3.3-15.1-4.3-23s.7-1.8,1.6-1.6c2.8.4,5.8,2.2,8.2,2.7,8.3,2,17.8.9,25.6,0,3.6-.6,6.9.3,11,2.4,4.2,1.2,9.8,1.7,14.7,1.4s2,.3,2.8,1c2.5,2.4,5.1,4.7,7.7,7s.5,1.3,0,1.7c-17.8,15.4-33.4,30.5-52,50.6s-1.5.4-1.8-.3c-4.9-11.6-10.4-30.9-13.5-41.9ZM783.7,1299.2c-9.2-1.6-16.1-.9-23.6-5-21.3-12.6-37.6-35.5-47.4-56.7-.6-1.3-.3-2.8.6-3.9,19.1-20.6,35-36.1,53.4-51.9.4-.4,1.1-.4,1.5,0,4,3.3,8,6.6,11.8,9.6s.7,1.3.4,1.9c-14.6,26.8,29.2,42.7,35.2,12.8h4.1c3.3,20.1,7,44.7,20.8,60,1.5,13.6-4.7,29.2-13.6,40.5-15.4-3.5-27.5-5.5-43.1-7.3ZM832,1307.7c1.6-2.4,3.3-5,4.9-7.5,1.4,3.9,4.2,7.1,7.9,8.9l-.3,1.4c-4.2-.9-8.3-1.9-12.5-2.9ZM875.3,1322.8c-5.6-1.7-11.3-5-12.8-10.3s.3-5.3,1.8-7.6c3.8-5.7,3.8-8.5,4.1-13.2,17.5,10.4,34.8,21.6,55.7,25.1.4,0,.8.3,1,.8.9,1.9,2.5,5.1,3.6,7.2s0,1.3-.7,1.4c-10,1.3-21.7,1.3-29.5.7s-17.1-2.2-23.3-4.1ZM934.4,1324.4c-5.4-9.4-10.2-20.5-13.4-30.8.7-1.1,3.5-3.2,7.5-5.9,8.8-5.9,22.6-9.3,29-11.1,3.4,8.3,9.1,14.7,20.7,16.8s4.8,3.4,4.2,6.4c-2.4,10.7-4.1,22-3.4,32.5s-1.9,3.1-3.5,2.2c-5-2.7-15.1-7-23.4-8.7-7.9-1.6-14.3-1.2-16.4-1s-.9-.2-1.1-.6ZM1002.3,1184.6c.4,6-6.1,12.5-8.7,18.7s-1.5,1.3-2.4,1c-7.9-3.3-16.6-6.7-25.1-7.7-13.6.4-20.5-1.2-35.9-5.4-4.2-12.5-15-20.7-25.9-26.8,2.2-5.7,4-16.8,5.5-22.9,5.5,1.2,10.3,2,15.4,3.1l-1.2,1.7c-1.9,2.6,2.2,5.6,4.1,2.9,0,0,2.4-3.4,2.4-3.4,15.9,2.8,69.7,19.8,71.8,38.9ZM1010.5,1115.2c-1.2,17.3-6.1,35.9-13.9,52.7-30.9-22.7-67.1-27.6-102.6-35,3.2-15.3-3.5-32.1-6.5-46.7,37.6-12.3,81.6-9.4,118.9-23.6,2.9,15.9,4.4,34.3,4.2,52.5ZM1001.8,1059.6c-33.9,10.8-80.8,10.9-115.9,22-8.2-20.7-10.4-46.7-7.3-73.3s1-1.7,2-1.5c15,2.5,25.2,14.4,39.9,18.5,31.8,12.1,65.4-4.4,94.5,11.1-4.9,8.5-3.8,18.6-13.1,23.3Z" fill="#ccc"/>
    </g>
  </g>
  <g id="sidewalks">
    <path d="M1480.1,700.6h0c0,0,.2,0,.2,0,11.2,2.9,21,5.5,29.8,7.8,2.2.9,5,1.5,8,2,3.6.7,8.9,1.6,10,3.4,7,40.2-5.1,82.8-16.7,124-1.2,4.2-2.4,8.3-3.5,12.4-2,6.7-3.9,13.3-5.8,19.8-3.7,12.6-7.5,25.6-11.5,39.5h0c0,.1,0,.3,0,.3,0,.5-.5.8-.8.8s-.1,0-.2,0h0c-1.2-.4-14.5-4.7-27.3-8.8-22.4-7.3-32.3-10.4-33.5-10.8-.2-.2-.4-.5-.5-.7h0c7-25.7,31.3-114.8,50.6-187.4v-.2c0,0,0-.2,0-.2.1-.9.6-1.9,1.1-1.9M1480.1,697.6c-2.4,0-3.8,2.4-4,4.5-15.4,57.7-35.8,133.2-50.6,187.3-.8,2,1.7,4.4,2.5,4.4s0,0,0,0c1.4.4,60.7,19.6,60.9,19.6.3,0,.7.1,1,.1,1.8,0,3.4-1.3,3.7-3.2,5.9-20.9,11.5-39.4,17.3-59.3,12.2-44.1,28.2-93.1,20.2-138.2-2.2-5.2-14.5-4.9-19.9-7.3-10-2.6-20-5.2-30-7.8-.3,0-.7-.1-1-.1h0Z" fill="#d8d3c7"/>
    <path d="M807.3,1357.7h0c.1,0,.2,0,.4,0h0s0,0,0,0c.6,0,1,.4,1.4.8.3.5.5,1,.4,1.6-1.9,11.3-4.1,24.9-6.2,38.3-2,12.1-4.9,30.8-6.5,40.8-.2,1-1,1.7-2,1.7s-.2,0-.4,0c-1.1-.2-1.8-1.2-1.6-2.3,2.2-13.4,9.4-58.9,12.5-79.2.2-1,1-1.8,2.1-1.8M807.3,1354.7c-2.5,0-4.6,1.8-5,4.3-3.1,20.1-10.1,64.4-12.5,79.1-.4,2.7,1.4,5.3,4.1,5.7.3,0,.6,0,.9,0,2.4,0,4.6-1.8,5-4.2,1.4-9.1,4.5-28.5,6.5-40.8,2.2-13.3,4.4-26.9,6.2-38.3.5-2.8-1.4-5.4-4.2-5.8-.3,0-.6,0-.9,0h0Z" fill="#d8d3c7"/>
    <path d="M463,1157.3h0c.3,0,.7,0,1,0,8.7,1.4,19.1,3.2,30.4,5,45.1,7.5,107,17.7,137.6,22.7,1.3.2,2.3.9,3.1,1.9.7,1,1,2.3.8,3.6l-16.6,103.9c-.8,5-5,8.6-10,8.6s-1.3,0-2-.2c-34.5-6.9-125.5-21.2-167.6-27.1h-.2s-.2,0-.2,0c-.8,0-1.6-.4-2.1-1-.5-.7-.7-1.5-.5-2.3h0c0,0,0-.2,0-.2,6.7-31.6,13.1-66.4,20-109.6.5-3,3.1-5.2,6.1-5.2M463,1154.3c-4.4,0-8.3,3.2-9.1,7.7-5.9,36.8-12.4,73.4-20,109.5-1,3.6,1.7,7.2,5.4,7.2,44.3,6.2,133.6,20.3,167.4,27,.9.2,1.7.3,2.6.3,6.3,0,12-4.6,13-11.1l16.6-103.9c.7-4.2-2.2-8.2-6.4-8.9-38.2-6.2-124-20.4-168-27.7-.5,0-1-.1-1.5-.1h0Z" fill="#d8d3c7"/>
    <path d="M479.1,1053.5h0c.3,0,.7,0,1,0,13.1,2.2,30,5,48.2,8,44,7.3,93.9,15.6,120.8,20,1.3.2,2.3.9,3.1,1.9.7,1,1,2.3.8,3.5l-5.7,34.6-7.7,46.7c-.4,2.3-2.3,4-4.7,4s-.5,0-.8,0c-38.6-6.3-129.4-21.3-168.2-27.7-3.3-.6-5.6-3.7-5.1-7.1,2.5-15.9,4.9-32,7.3-47.6,1.6-10.3,3.2-20.7,4.7-31,.5-3,3.1-5.3,6.1-5.3M479.1,1050.5c-4.5,0-8.4,3.3-9.1,7.8-4,26.2-8,52.5-12.1,78.6-.8,5,2.6,9.7,7.6,10.5,43.7,7.2,130.3,21.6,168.2,27.7.4,0,.8.1,1.3.1,3.7,0,7-2.7,7.6-6.5,3-18,10.4-63.2,13.4-81.3.7-4.2-2.2-8.2-6.4-8.9-38.3-6.3-125.1-20.7-169-28-.5,0-1-.1-1.5-.1h0Z" fill="#d8d3c7"/>
    <path d="M752,732.5c.3,0,.7,0,1,.1l96.2,25.1c1,.3,1.9.9,2.4,1.9.5.9.6,2,.3,3.1-7.8,23.4-16.4,49-24.7,73.8-11.7,34.8-23.7,70.8-33.7,101.1-.5,1.6-2,2.6-3.7,2.6s-.4,0-.6,0l-97.4-15.8c-1.1-.2-2.1-.8-2.7-1.8-.6-1-.7-2.1-.4-3.2l24.7-76.1c.7-2.3,2.8-3.8,5.2-3.8s.9,0,1.4.2c34.6,9.2,35.5,9.2,36.1,9.2h0s0,0,.1,0c3.2,0,5.9-2.4,6.3-5.8.4-3.4-1.6-6.3-4.8-7h-.1s0,0,0,0c-.9-.2-7.4-2-13.8-3.7-6.5-1.8-13.9-3.8-19.5-5.3-1.4-.4-2.5-1.2-3.2-2.5-.7-1.2-.8-2.7-.4-4l27.6-85.3c.5-1.6,2-2.7,3.7-2.7M752,729.5c-2.9,0-5.6,1.9-6.5,4.7l-27.6,85.3c-1.4,4.4,1.1,9.2,5.6,10.3,11.9,3.1,32.4,8.8,33.5,9,3.9.9,3,6.9-.8,6.9s0,0-.1,0c0,0,0,0,0,0-.9,0-23.2-5.8-35.3-9.1-.7-.2-1.5-.3-2.2-.3-3.6,0-6.9,2.3-8.1,5.9l-24.7,76.1c-1.3,4,1.3,8.2,5.4,8.9l97.4,15.8c.4,0,.7,0,1.1,0,2.9,0,5.6-1.9,6.5-4.7,17.2-52,39.7-118.6,58.4-174.9,1.3-3.8-.9-7.8-4.8-8.8l-96.2-25.1c-.6-.2-1.2-.2-1.7-.2h0Z" fill="#d8d3c7"/>
    <path d="M1329.1,873.1h0c.2,0,.5,0,.7.1l76.8,24.4c3.2,1,5,4.3,4.1,7.5-9.5,34.8-25.2,93.7-36.7,136.7-4.8,18.1-8.9,33.3-11.3,42.5-.7,2.6-3.1,4.5-5.8,4.5s-1.5-.1-2.2-.4c-15.2-5.9-47.5-17.9-72.7-27.1-2.4-.9-4.5-3.3-3.7-6.3,4.9-18.1,9.8-36.5,14.7-55,11.1-41.3,22.5-84,33.7-125.1.3-1.1,1.3-1.8,2.3-1.8M1329.1,870.1c-2.4,0-4.6,1.6-5.2,4-16.2,59.3-32.6,121.1-48.5,180.1-1.1,4.3,1.4,8.4,5.6,9.9,20,7.3,55.7,20.5,72.7,27.1,1.1.4,2.2.6,3.3.6,4,0,7.6-2.6,8.7-6.7,8.3-30.8,34.5-129.7,48-179.2,1.3-4.7-1.4-9.7-6.1-11.2l-76.8-24.4c-.5-.2-1.1-.3-1.6-.3h0Z" fill="#d8d3c7"/>
    <path d="M1109,906.4h0c.2,0,.4,0,.6.1l175.9,56c2.1.7,3.2,2.8,2.7,4.9-6.5,24.1-13.6,50.3-22.1,82.2-.6,2.2-2.5,3.7-4.8,3.7s-1.2-.1-1.7-.3c-8.8-3.3-23-8.7-39.4-14.9-45.9-17.5-108.8-41.5-131.7-48-1-.3-1.9-1-2.4-1.9-.5-.9-.6-2-.3-3,4.5-14.1,13-46.3,18-65.6,1.2-4.7,2.3-8.7,3.1-11.7.2-.9,1.1-1.6,2-1.6M1109,903.4c-2.2,0-4.3,1.5-4.9,3.8-4.1,15.3-15.5,59.7-21.1,77.1-1.2,3.7.9,7.6,4.7,8.7,31.1,8.8,137.9,50.6,170.9,62.8.9.3,1.8.5,2.8.5,3.5,0,6.7-2.3,7.7-5.9,7.3-27.1,14.7-54.5,22.1-82.2,1-3.6-1.1-7.4-4.7-8.5l-175.9-56c-.5-.2-1-.2-1.6-.2h0Z" fill="#d8d3c7"/>
    <path d="M1370.4,746.8h0c6.3,0,15.8,2.9,30.2,7.3,11.4,3.5,25.6,7.8,43.9,12.5,1.7.8,3.4,1.7,2.1,6.8-8.1,30-20,73.9-29.6,109-.5,1.9-2.3,3.3-4.3,3.3s-.9,0-1.4-.2l-76.2-24.2c-2.3-.7-3.6-3.1-3-5.5,9.6-31.1,15.1-54.3,19.1-71.2,7.2-30.5,9.3-37.7,19.1-37.7M1370.4,743.8c-19.8,0-14.5,25.4-41.1,111.1-1.1,3.9,1.1,8,4.9,9.2l76.2,24.2c.8.2,1.5.4,2.3.4,3.3,0,6.3-2.2,7.2-5.5,9.2-33.7,20.7-76.1,29.6-109,2.1-7.6-1.8-9.4-4-10.4-42.3-10.8-63.2-19.9-75.1-19.9h0Z" fill="#d8d3c7"/>
    <path d="M1159.4,720.7c.3,0,.5,0,.7,0l179.2,48.2c.7.2,1.4.7,1.8,1.4.4.7.5,1.4.3,2.2-7,25.3-14.5,52.4-22.2,80.6-.3,1.2-1.5,2.1-2.8,2.1s-.6,0-.9-.1l-176.6-56c-1.5-.5-2.3-2-1.9-3.5l19.5-72.8c.3-1.3,1.5-2.1,2.8-2.1M1159.4,717.7c-2.6,0-5,1.7-5.7,4.4l-19.5,72.8c-.8,3,.9,6.2,3.9,7.1l176.6,56c.6.2,1.2.3,1.8.3,2.6,0,5-1.7,5.7-4.3,7.4-27,14.8-53.9,22.2-80.6.9-3.1-1-6.4-4.1-7.2l-179.2-48.2c-.5-.1-1-.2-1.5-.2h0Z" fill="#d8d3c7"/>
    <path d="M1135.7,811.8h0c.4,0,.8,0,1.2.2l174.7,55.4c2,.6,3.1,2.6,2.5,4.6-6.5,23.8-13.2,48.4-20.4,75.1-.5,1.8-2.1,3-3.9,3s-.8,0-1.2-.2l-175.8-55.9c-1.1-.3-1.7-1.5-1.4-2.5l20.6-76.7c.4-1.7,2-2.8,3.7-2.8M1135.7,808.8c-3,0-5.8,2-6.6,5l-20.6,76.7c-.7,2.6.8,5.4,3.4,6.2l175.8,55.9c.7.2,1.4.3,2.1.3,3.1,0,5.9-2,6.8-5.2,6.7-25,13.5-50,20.4-75,1-3.5-1-7.2-4.5-8.3l-174.7-55.4c-.7-.2-1.4-.3-2.1-.3h0Z" fill="#d8d3c7"/>
    <path d="M950.1,776.4h0c0,0,.1,0,.2,0,.5,1.6.9,8.4-7,35-5.5,18.6-13.2,40.7-19.4,58.4-5.4,15.6-9.4,27-10.4,31.5-2.1,4.8-4.2,8.1-7.1,10.6-.4-17.4,6.4-37,12.9-55.9,3.6-10.4,7-20.2,9.3-29.7,2.6-8,7.1-20.3,11.1-31.2.8-1.9,1.5-4.1,2.3-6.3,2.3-7,4.3-12.3,8-12.3M950.1,773.4c-8.1,0-9.9,13.3-13.1,20.6-4,11-8.6,23.5-11.2,31.5-7.1,29.3-25.2,63.4-22,92,5.9-3.4,9.4-7.8,12.6-15.2,2.8-14,46.4-124.7,35.2-128.7-.5-.1-1.1-.2-1.6-.2h0Z" fill="#d8d3c7"/>
    <path d="M785.4,626.5h0c.2,0,.4,0,.7,0l99,26.5c.7.2,1.2.6,1.6,1.2.3.6.4,1.3.2,2-7.2,22.6-16.6,51.3-28.7,87.8-.3,1-1.3,1.8-2.4,1.8s-.4,0-.6,0l-98.9-25.8c-.7-.2-1.3-.6-1.6-1.2-.3-.6-.4-1.3-.2-2l28.6-88.5c.3-1.1,1.3-1.8,2.4-1.8M785.4,623.5c-2.4,0-4.5,1.5-5.3,3.8l-28.6,88.5c-1,3,.8,6.3,3.9,7.1l98.9,25.8c.5.1.9.2,1.4.2,2.3,0,4.5-1.5,5.3-3.8,10.6-32,20.6-62.5,28.8-87.9,1-3-.8-6.2-3.9-7l-99-26.5c-.5-.1-1-.2-1.4-.2h0Z" fill="#d8d3c7"/>
    <path d="M1275.3,1082.8h0c.5,0,.9,0,1.3.2l7.5,2.8c19.3,7.1,48.4,17.9,66.6,24.6,4.2,1.5,6.7,5.8,6.1,10.3-6.1,40.3-13.9,89.6-21.9,138.9-.4,2.4-2.4,4.1-4.8,4.1s-.5,0-.8,0l-4.5-.7c-24.7-4-52.7-8.6-74.6-12.2-2.6-.4-4.4-2.9-4-5.6,4.6-28.4,9.5-59.8,14.3-90,3.7-23.1,7.4-46.4,11-69,.3-1.9,1.9-3.2,3.8-3.2M1275.3,1079.8c-3.2,0-6.2,2.3-6.8,5.8-8.4,52.7-17.4,109.3-25.3,159-.7,4.3,2.2,8.3,6.5,9,23.2,3.8,52.6,8.6,79.1,12.9.4,0,.9.1,1.3.1,3.8,0,7.1-2.7,7.8-6.6,7.3-45.3,15.2-95,21.9-138.9.9-5.8-2.5-11.5-8-13.5-20.9-7.6-56.6-20.9-74.1-27.4-.8-.3-1.6-.4-2.4-.4h0Z" fill="#d8d3c7"/>
    <path d="M1185.7,624.9h0c.3,0,.7,0,1,.1,18.7,5.4,35.1,10.2,50.3,14.6h0s0,0,0,0c15.8,3.6,33.7,8.7,52.6,14.1,33.3,9.5,67.8,19.4,95,22,1.8.2,3.7.5,5.6,1,16.4,4.3,33.1,8.7,49.3,13,6.3,1.7,12.5,3.3,18.8,5h.1s.1,0,.1,0c3.5.6,6,1.7,7,3.1.3.4.6,1.2.3,2.6l-13.7,51.1c-.4,1.6-1.9,2.7-3.5,2.7s-.9,0-1.3-.3c-7.5-3-18.6-5.7-28.3-8.1-7.4-1.8-14.5-3.6-17.8-4.9h-.1s-.1,0-.1,0c-15.9-4.9-26-7.8-33.6-7.8-8.9,0-15.6,3.4-20.9,20.6-.5,1.5-1.9,2.5-3.5,2.5s-.6,0-1-.1l-178-47.8c-1.9-.5-3.1-2.5-2.6-4.5l20.5-76.3c.4-1.6,1.9-2.7,3.5-2.7M1185.7,621.9c-2.9,0-5.6,2-6.4,4.9l-20.5,76.3c-1,3.5,1.2,7.2,4.7,8.1l178,47.8c.6.2,1.2.2,1.7.2,2.8,0,5.4-1.8,6.3-4.6,4.2-13.3,8.6-18.5,18.1-18.5,7.2,0,17.4,3,32.7,7.7,8,3.2,32.9,7.8,46.1,13.1.8.3,1.6.5,2.4.5,2.9,0,5.6-1.9,6.4-4.9l13.7-51.1c1.6-6.2-4.6-8.6-9.6-9.4-22.6-6-45.5-12.1-68.1-18-2-.5-4-.9-6.1-1.1-42.2-4.1-103.3-26.1-147.3-36.1-16.8-4.9-33.6-9.8-50.3-14.6-.6-.2-1.2-.3-1.8-.3h0Z" fill="#d8d3c7"/>
    <path d="M820.4,524.6h0c.5,0,.9,0,1.4.2,109.7,29.3,227.3,60.9,343.7,94.2,2.8.8,4.5,3.7,3.7,6.6l-11.7,43.5c-11.1,41.4-23.7,88.2-32.1,119.8-.6,2.3-2.8,4-5.2,4s-1.1,0-1.6-.3l-229.9-73.2c-3.6-1.2-5.7-5-4.5-8.7l17.3-56.4c.8-2.7.5-5.5-.8-8-1.4-2.5-3.6-4.2-6.3-5l-103.2-27.8c-.7-.2-1.3-.7-1.7-1.3-.4-.7-.4-1.4-.2-2.1,4.5-13.9,16.1-49.8,25.9-81.8.7-2.2,2.8-3.7,5.1-3.7M820.4,521.6c-3.6,0-6.8,2.3-8,5.8-9.8,32.1-21.5,68.1-25.9,81.8-1,3.1.8,6.4,4,7.3l103.2,27.8c4,1.1,6.3,5.2,5.1,9.2l-17.3,56.4c-1.6,5.2,1.3,10.8,6.5,12.4l229.9,73.2c.8.3,1.7.4,2.5.4,3.7,0,7.1-2.5,8.1-6.2,11.7-43.5,31.1-115.8,43.8-163.3,1.2-4.4-1.4-9-5.8-10.2-114.8-32.8-228.6-63.5-343.8-94.3-.7-.2-1.4-.3-2.2-.3h0Z" fill="#d8d3c7"/>
    <path d="M634.8,475.2c3.3,0,7.6,1.4,11.7,2.8,3.4,1.2,6.7,2.2,9.5,2.6,31.1,8.3,62.5,16.7,92.8,24.7,17.6,4.7,35.2,9.4,52.8,14.1.7.2,1.2.6,1.6,1.2.3.6.4,1.3.2,2l-27.6,85.2c-.3,1.1-1.3,1.8-2.4,1.8s-.4,0-.7,0l-165.6-44.3c-.7-.2-1.2-.6-1.6-1.2-.3-.6-.4-1.3-.2-2,4.4-14.2,8.8-28.5,13.2-42.7,2.1-5.9,3.9-12.1,5.5-18.1,2.4-8.7,4.9-17.8,8.7-25.8.6-.2,1.2-.3,2-.3M634.8,472.2c-1.6,0-3,.3-4.2,1-6.9,14-9.5,30.4-14.9,45.3-4.4,14.2-8.8,28.5-13.2,42.7-.9,3,.8,6.2,3.9,7l165.6,44.3c.5.1,1,.2,1.4.2,2.4,0,4.5-1.5,5.3-3.8l27.6-85.2c1-3-.8-6.3-3.8-7.1-48.6-13-96.9-25.8-145.8-38.8-5.9-.7-15.2-5.5-21.8-5.5h0Z" fill="#d8d3c7"/>
    <path d="M602.5,577.5c.2,0,.4,0,.7,0l165.3,44.3c.7.2,1.2.6,1.6,1.2.3.6.4,1.3.2,2l-28.7,88.6c-.3,1.1-1.3,1.8-2.4,1.8s-.4,0-.6,0l-164.6-43c-.7-.2-1.2-.6-1.6-1.2-.3-.6-.4-1.3-.2-2,8.8-28.2,17.9-57.6,27.9-89.8.3-1.1,1.3-1.8,2.4-1.8M602.5,574.5c-2.4,0-4.6,1.5-5.3,3.9-9.3,29.9-18.6,59.9-27.9,89.8-.9,3,.8,6.2,3.9,7l164.6,43c.5.1.9.2,1.4.2,2.4,0,4.5-1.5,5.3-3.8l28.7-88.6c1-3-.8-6.3-3.8-7.1l-165.3-44.3c-.5-.1-1-.2-1.4-.2h0Z" fill="#d8d3c7"/>
    <path d="M569.2,684.7h0c.2,0,.4,0,.6,0l164.4,42.9c.7.2,1.3.6,1.6,1.2s.4,1.3.2,2l-29.4,87.6c-.6,1.7-2.2,2.9-4,2.9s-.7,0-1.1-.1c-32.5-8.5-140.2-36.5-161.3-41.9-.7-.2-1.2-.6-1.6-1.2-.3-.6-.4-1.3-.2-2,9.1-28.5,18.6-58.7,28.3-89.7.3-1.1,1.3-1.8,2.4-1.8M569.2,681.7c-2.4,0-4.6,1.5-5.3,3.9-9.4,29.9-18.8,59.8-28.3,89.7-1,3,.8,6.2,3.9,7,21.4,5.5,133,34.5,161.3,41.9.6.2,1.2.2,1.8.2,3,0,5.9-1.9,6.9-5l29.4-87.6c1-3-.8-6.3-3.9-7.1l-164.4-42.9c-.5-.1-.9-.2-1.4-.2h0Z" fill="#d8d3c7"/>
    <path d="M535.4,791.7h0c.2,0,.4,0,.7,0,10.2,2.7,26.7,7.2,45.8,12.3,44.3,11.9,99.5,26.8,117.4,31.4.7.2,1.3.6,1.6,1.2.3.6.4,1.3.2,2l-26.1,80.7c-.3,1.1-1.3,1.8-2.4,1.8s-.3,0-.4,0l-168.5-27.3c-1-.2-1.5-.8-1.7-1.2-.4-.7-.5-1.4-.3-2.1,10.1-30.9,20.6-63.5,31.3-97.1.3-1.1,1.3-1.8,2.4-1.8M535.4,788.7c-2.4,0-4.5,1.5-5.3,3.9-10.4,32.4-20.8,64.8-31.3,97-1,3.2,1,6.7,4.4,7.2l168.5,27.3c.3,0,.6,0,.9,0,2.4,0,4.5-1.5,5.3-3.8l26.1-80.7c1-3.1-.8-6.3-3.9-7.1-25.7-6.5-129.6-34.7-163.2-43.7-.5-.1-1-.2-1.4-.2h0Z" fill="#d8d3c7"/>
    <path d="M421.3,1302.6c17.5,3.1,31.9,3.3,48.4,3.5,1.4,0,2.8,0,4.2,0,8.6.1,17.3.9,25.7,2.2,22.4,3.7,46.2,7.5,70.9,11.5,1,.2,1.9.7,2.5,1.5.6.8.8,1.8.7,2.8-2.8,17.3-6.3,39.2-9.2,56.8l-.9,5.8c-.3,1.9,0,3.7,1.3,5.1,1.2,1.5,3.2,2.4,5.3,2.4,3.3,0,5.9-2.2,6.3-5.4l1.9-11.7c2.7-16.6,5.7-35.5,8.2-50.9.3-1.8,1.9-3.1,3.7-3.1s.4,0,.6,0c25,4,75,12.3,93.8,15.5,2.6.5,4.4,2.9,4,5.5-1.4,9-4.1,24.4-6.8,39.2-2,11.4-4,22.1-5.2,29.4-.6,3.8-1.3,8.3-1.7,11.5-.4,2.8,1.3,5.6,4,6.5h0s0,0,0,0c.6.2,1.2.3,1.9.3,2.9,0,5.3-2.1,5.9-4.9.5-2.8,1.3-6.9,2-10.5,5-26.5,9.5-55,11.7-69.6.3-2.1,2.1-3.7,4.3-3.7s.4,0,.7,0c13.8,2.1,49.7,7.4,83.9,12.3,1,.2,1.9.7,2.5,1.5.6.8.8,1.8.7,2.8-2,12.2-4.7,29-6.7,41.2l-.2,1.2-5.6,35.7c-1.3,8.2,4.1,15.8,12.3,17.3.9.2,1.8.2,2.7.2,7.5,0,13.8-5.4,15-12.8,3.5-21.9,9.8-61.2,12.5-78.2.3-1.8,1.9-3.1,3.7-3.1s.4,0,.6,0c20.3,3.2,40.5,6.4,60.7,9.6l21.4,3.4c2,.3,3.4,2.2,3.1,4.3-2.8,17.9-6,38.6-9,58.7-2.8,18.2-5.4,35.4-7.8,50.7-.3,1.9.2,3.7,1.4,5.1,1.2,1.4,3.1,2.3,5.1,2.3,3.3,0,5.8-2.2,6.4-5.4,2.4-15.2,5-32.3,7.7-50.4,3.1-20.1,6.3-40.9,9.1-58.9.3-1.8,1.9-3.2,3.7-3.2s.4,0,.6,0c20.5,3.2,40.9,6.5,61.2,9.7,5.9.9,10,6.3,9.4,12.2-3,28.5-11.7,76.2-17.4,107.9-5.1,28.2-6.1,34.5-6.1,36.7,0,.6-.1,1.1-.1,1.6-101.9-21.6-219.1-70.9-297.1-103.8-18.3-7.7-34.1-14.4-47.5-19.7-44.2-19.2-84.1-29.8-116.2-38.3-7.4-2.3-14.7-4.3-21.8-6.3-32-9.1-59.7-16.9-70.1-35.6-5.4-9.8-6.1-22.4-1.9-38.4M419.2,1299.2c-18,62.8,35,68.3,95,86.7,32,8.5,71.9,19.1,115.9,38.2,72.7,29.2,223.2,98.9,349.9,124.7,0,0,0,0,0,0-1-1.6-1.3-3.3-1-5.5-.9-2.5,18.4-97.8,23.4-144.3.8-7.5-4.4-14.3-11.9-15.5-20.3-3.2-40.7-6.4-61.2-9.7-.4,0-.7,0-1.1,0-3.3,0-6.1,2.4-6.7,5.7-5.2,33.6-11.7,76.8-16.8,109.3-.3,2-1.9,2.9-3.4,2.9s-3.9-1.4-3.5-3.9c5.1-32.5,11.6-75.7,16.8-109.3.6-3.7-1.9-7.1-5.6-7.7-27.4-4.3-54.6-8.6-82.1-12.9-.4,0-.7,0-1.1,0-3.3,0-6.1,2.4-6.7,5.7-2.8,17.3-9.3,57.7-12.5,78.2-1,6-6.1,10.3-12,10.3s-1.5,0-2.2-.2c-6.5-1.2-10.9-7.4-9.8-13.9l5.6-35.7c2-12.3,4.9-29.8,6.9-42.4.6-3.7-1.9-7.2-5.6-7.7-33.9-4.8-69.1-10.1-83.9-12.3-.4,0-.7,0-1.1,0-3.6,0-6.7,2.6-7.2,6.2-2,13.3-6.5,42.6-11.6,69.5-.7,3.6-1.5,7.7-2,10.5-.3,1.4-1.5,2.4-2.9,2.4s-.6,0-.9-.2h0c-1.4-.5-2.2-1.8-2-3.2.4-2.8,1.1-7.5,1.7-11.4,2.8-16.8,9.5-52.6,12-68.6.6-4.2-2.2-8.2-6.4-8.9-18.6-3.2-68.9-11.5-93.8-15.5-.4,0-.7,0-1.1,0-3.3,0-6.1,2.4-6.7,5.7-3.1,19.3-7.2,44.3-10.1,62.6-.3,2-1.8,2.9-3.3,2.9s-4.1-1.5-3.6-4c3-18.3,7-43.3,10.1-62.6.6-3.7-1.9-7.2-5.6-7.8-23.8-3.8-47.4-7.7-70.9-11.5-8.7-1.4-17.4-2.2-26.2-2.3-19-.2-34.8,0-54.7-4h0Z" fill="#d8d3c7"/>
    <path d="M1029,1396.7c.4,0,.9,0,1.3.1,8,1.4,16.7,2.7,25.9,4.2,6.1,1,12.5,2,19.2,3.1,3.1.5,5.3,3.5,4.8,6.6-1.9,12.6-4.1,26.7-6.3,40.7-2.9,18.7-5.8,37.3-8.1,52.5-.5,3.5,1.9,6.9,5.4,7.4.3,0,.7,0,1,0,3.2,0,6-2.4,6.4-5.5,2.3-15.1,5.1-33.5,8-52,2.2-14.1,4.4-28.3,6.3-41,.4-2.8,2.9-4.9,5.7-4.9.3,0,.6,0,.9,0,27.5,4.4,74.4,12.4,93.2,15.6,2.7.5,4.8,2.8,4.9,5.6.1,2.9,0,5.8-.4,8.7-2.3,17.9-9.2,55.8-19.5,71-10.4,15.4-26,27.1-46.5,34.7-19.3,7.2-43,10.9-70.4,10.9s-41-1.9-63.9-5.6c0-.1,0-.2.1-.3v-.2c0,0,.1-.3.1-.3.2-1,17.2-100.7,24.2-145,.6-3.7,3.7-6.4,7.5-6.4M1029,1393.7c-5.1,0-9.6,3.7-10.5,9-7.1,44.8-24.2,144.9-24.2,144.9-.6,1.5-1.5,2.7-2.6,3.5,24.3,4.2,47.6,6.4,69.2,6.4,53.7,0,97.1-13.9,119.4-46.9,11.2-16.6,18.1-56.8,20-72.3.4-3.5.5-6.7.4-9.2-.2-4.2-3.3-7.7-7.4-8.4-17.4-3-65.4-11.2-93.3-15.6-.5,0-.9-.1-1.4-.1-4.3,0-8,3.1-8.7,7.4-4.5,29.3-10.2,66.4-14.3,93-.3,1.7-1.8,3-3.5,3s-.4,0-.5,0c-1.9-.3-3.2-2.1-2.9-4,4.1-26.6,9.8-63.8,14.3-93.2.7-4.8-2.5-9.2-7.3-10-17-2.8-31.9-5-45-7.2-.6-.1-1.2-.2-1.8-.2h0Z" fill="#d8d3c7"/>
    <path d="M1036.9,1281.2h0c.2,0,.5,0,.8,0,46.5,7.5,131.9,21.3,180.2,29,1.2.2,2.3.9,3,1.9.7,1,1,2.2.8,3.5-4.1,25.5-8,49.6-11.6,71.8-.7,4.1-4.3,7-8.7,7s-1,0-1.5-.1c-49.7-7.6-119.1-18.3-167.1-26.4-7.4-1.3-12.4-7.6-11.3-14.5,2.6-16.8,7.6-48,10.9-68.2.4-2.2,2.3-3.9,4.6-3.9M1036.9,1278.2c-3.7,0-6.9,2.7-7.5,6.4-3.2,19.8-8,49.8-10.9,68.2-1.4,8.8,5,16.5,13.8,18,53,9,130.5,20.9,167.2,26.5.7.1,1.3.2,2,.2,5.7,0,10.7-3.7,11.7-9.5,3.6-22.2,7.5-46.3,11.6-71.8.7-4.2-2.2-8.1-6.3-8.7-46.7-7.4-132-21.2-180.2-29-.4,0-.8,0-1.2,0h0Z" fill="#d8d3c7"/>
    <path d="M1245.9,1263.2c.2,0,.3,0,.5,0,21.8,3.6,48.7,8,74.8,12.2l7.8,1.3c1.7.3,2.8,1.8,2.5,3.5l-1.1,6.8c-6,37-12.2,75.3-17.9,111.2-.3,1.9.1,3.7,1.3,5.1,1.2,1.5,3.2,2.3,5.2,2.3,3.3,0,5.9-2.2,6.3-5.4,5.6-35.7,11.8-73.8,17.8-110.5l1.2-7.4c.2-1.5,1.5-2.6,3-2.6.2,0,.3,0,.5,0,9.1,1.5,19.6,3.3,29.7,5.1,5.7,1,11.2,1.9,16,2.8,1.8.4,2.2,1.1,2.4,2.3.3,1.8-.3,4.4-.7,6.6-.2,1-.4,2-.5,2.9-3.6,20.9-7,41.9-10.4,62.3-1.1,6.5-2.1,12.9-3.2,19.3-2.7,16.2-4.7,28.3-6.6,39.5h0s0,0,0,0c-.3,1.9-2.3,3.6-4.3,3.6s-.4,0-.6,0h0s0,0,0,0c-46.1-7.2-92.6-14.3-138.3-21.2-2.7-.4-5.2-1.9-6.8-4.1-1.6-2.2-2.3-5-1.9-7.7,6-36.9,12.7-79.1,20.2-125.3.2-1.5,1.5-2.6,3-2.6M1245.9,1260.2c-2.9,0-5.5,2.1-6,5.1-7.3,45.6-14.2,88.2-20.2,125.3-1.2,7.3,3.8,14.2,11.2,15.3,45.8,6.9,92,14,138.3,21.2.4,0,.8.1,1.2.1,3.5,0,6.7-2.6,7.3-6.1,2.2-12.9,4.4-26.1,6.6-39.5,4.4-26.7,8.8-54.2,13.5-81.6.8-5.3,4-13.7-3.5-15.3-13.2-2.3-31.5-5.5-45.8-7.9-.3,0-.7,0-1,0-2.9,0-5.5,2.1-6,5.1-6.4,39.2-13,79.9-19,118-.3,2-1.8,2.9-3.4,2.9s-4-1.4-3.6-4c6-38.1,12.6-78.8,19-118,.5-3.3-1.7-6.4-5-7-27.6-4.5-58.6-9.5-82.6-13.5-.3,0-.7,0-1,0h0Z" fill="#d8d3c7"/>
    <path d="M1088.5,1013.5c1.3,0,2.6.2,3.8.6,16.3,5.2,39.3,14.1,57.8,21.2,7.7,3,14.3,5.5,19.6,7.5,2.2.8,3.3,3.3,2.6,5.5-.7,1.8-1.3,3.7-2,5.6-7.1,19.9-15.1,42.4-17.7,61.4h0c0,.4-.2.8-.2,1.3l-.6,4-2.3,14.1-6.9,42.9-10.1,62.4c-.3,1.9.2,3.8,1.4,5.3,1.2,1.5,3,2.3,5,2.3h0c3.2,0,5.9-2.3,6.4-5.5l20.1-124.9h0s0,0,0,0c2.4-17.9,10.2-39.8,17.2-59.1.7-2.1,1.5-4.1,2.2-6.1.5-1.3,1.7-2.2,3.2-2.2.4,0,.8,0,1.2.2l63,23.6c4.6,1.7,7.3,6.4,6.6,11.3-11.3,70.9-22.8,142.9-33.3,208.2-.4,2.6-2.6,4.5-5.2,4.5s-.6,0-.8,0c-48.1-7.7-132.8-21.3-178.8-28.8-1.4-.2-2.6-1-3.5-2.2-.8-1.2-1.1-2.6-.9-4,5.5-31.5,10.9-65,16-97.5,7.6-47.7,15.5-96.9,24-141.3,1.1-5.9,6.3-10.1,12.3-10.1M1088.5,1010.5c-7.2,0-13.8,5.1-15.2,12.6-14.5,74.7-26.5,161.3-40.1,238.8-.8,4.5,2.3,8.9,6.8,9.6,48.1,7.8,132.2,21.3,178.8,28.8.4,0,.9.1,1.3.1,4,0,7.5-2.9,8.2-7,10.3-64.4,21.9-136.4,33.3-208.2,1-6.2-2.5-12.3-8.5-14.5l-63-23.6c-.7-.3-1.5-.4-2.2-.4-2.6,0-5.1,1.6-6,4.2-7.2,20.4-16.8,45.7-19.5,65.9l-20.1,124.9c-.3,1.7-1.8,2.9-3.5,2.9,0,0,0,0,0,0-2.1,0-3.8-2-3.4-4.1,0,0,20.1-124.9,20.1-124.9,2.8-20.5,12.2-45.6,19.6-66.4,1.3-3.8-.6-7.9-4.3-9.3-18-6.7-54.4-21.3-77.5-28.7-1.6-.5-3.2-.7-4.7-.7h0Z" fill="#d8d3c7"/>
    <path d="M1374.4,1119.8h0c.6,0,1.2.1,1.7.3,13.6,5,18.2,6.7,31.6,11.8l7.7,2.9c12,4.5,11.1,10.8,6.4,31.9-5.1,22.7-12.9,59-18,83.1-2.3,11-3.8,18-5.3,21.8-1.2,3.2-1.9,3.2-2.8,3.2s-2.4-.2-4-.5c-9.1-1.6-19.1-3.3-28.9-4.9-3.8-.6-7.5-1.3-11.3-1.9-2.6-.4-4.4-3-4-5.6,7-43.5,15.2-93.9,21.8-137.8.4-2.4,2.4-4.1,4.8-4.1M1374.4,1116.8c-3.8,0-7.2,2.7-7.8,6.7-6.6,43.6-14.5,92.8-21.8,137.8-.7,4.3,2.2,8.3,6.5,9,13.5,2.3,27.6,4.6,40.1,6.8,1.8.3,3.3.6,4.5.6,5.1,0,6.2-4.4,11-27.3,5.4-26,13-61.3,17.9-83,4.6-20.5,6.4-29.8-8.3-35.3-20-7.5-23.4-8.8-39.4-14.7-.9-.3-1.9-.5-2.8-.5h0Z" fill="#d8d3c7"/>
    <path d="M1428.5,904.8h0c.6,0,1.1,0,1.6.3l56,18.1c.4.1.6.5.5.9-4.8,17.7-9,33.9-12.6,49.6-6.9,25.1-13.3,48.5-18.9,69.1-9.8,36.1-16.9,62.2-18.5,66.2-1.2,2.9-3.4,6.4-7.4,6.4s-2.1-.2-3.2-.6c-20.4-7.5-33.9-12.5-48.3-17.9-2.3-.9-3.8-3.7-3.2-6.1,7.6-32.6,18.2-70.6,29.4-110.9,6.5-23.5,13.3-47.9,19.4-71,.6-2.3,2.7-4,5.2-4M1428.5,901.8c-3.7,0-7.1,2.5-8.1,6.2-16.2,61.5-36.6,129.7-48.8,182-.9,3.9,1.4,8.2,5.1,9.6,15.4,5.8,28.7,10.7,48.3,17.9,1.5.5,2.9.8,4.2.8,4.3,0,8-2.7,10.2-8.3,2.6-6.5,18.1-65.2,37.5-135.7,4-17.3,8.3-33.8,12.6-49.5.5-1.9-.6-3.9-2.5-4.6l-56-18.1c-.9-.3-1.7-.4-2.6-.4h0Z" fill="#d8d3c7"/>
    <path d="M880.8,731.1h0c.7,0,1.4.1,2,.3l234.9,74.5c1.6.5,2.6,2.2,2.1,3.9l-20.7,77.2c-.3,1-1.2,1.8-2.3,1.8s-.5,0-.7-.1l-52.2-16.6-35.9-11.4-11.8-3.8-3.3-1.1-.9-.3c0,0-.2,0-.3,0h0c-.7-.2-1.4-.4-2.1-.4-3.1,0-5.8,2.4-6.3,5.7-.5,3.3,1.3,6.1,4.4,7l105.2,33.5c1.2.4,1.9,1.6,1.6,2.9-.9,3.4-2.2,8.2-3.6,13.8-5.2,20-13.1,50.2-17.6,63.7-.8,2.4-3,4-5.5,4s-.6,0-.9,0c-16.8-2.6-46.8-7.6-78.6-12.9-34.1-5.7-69.4-11.6-87.8-14.4-.8-.1-1.3-.6-1.5-.9-.2-.3-.5-.9-.3-1.7,2-7.7,4.6-15.6,7-23.3.5-1.4.9-2.8,1.4-4.2,5-2.7,14.9-10.1,21.1-28.8,4.1-12.2,31.8-100,33.3-105.6,3.2-11.5,3.3-19.3.3-24.5-1.6-2.9-4.1-4.8-7.3-5.6-1.5-.4-2.9-.6-4.4-.6-8.6,0-15.7,7.1-20.7,20.4-2.4,6.4-29.7,86.2-34.2,107.1-3.3,15.6-2.7,23.6-.2,32.4-.6,1.8-1.2,3.6-1.8,5.5-2.7,8.4-5.5,17-7.7,25.6-.2.9-1.1,1.6-2.1,1.6s-.2,0-.3,0l-74.2-12c-.9-.2-1.7-.7-2.2-1.5-.5-.8-.6-1.8-.3-2.7,10.1-30.5,21.3-63.9,33.2-99.4,11.8-35.1,23.9-71.4,34.7-104.1.9-2.7,3.5-4.6,6.3-4.6M950.3,776.5c.3,1.4.6,5.2-1.8,13.6-1.2,4.3-28.7,91.6-33.1,104.9-2.6,7.9-5.9,12.9-8.7,16.2-.3-4.3.1-9.6,1.9-17.9,4.2-19.8,31.4-99.1,33.6-105.2,2.6-7.1,5.6-11.4,8.1-11.5M880.8,728.1c-4.1,0-7.8,2.6-9.2,6.6-21.4,64.8-47.5,141.9-67.9,203.5-1.2,3.6,1.1,7.5,4.9,8.1l74.2,12c.3,0,.6,0,.8,0,2.3,0,4.4-1.6,5-3.9,2.6-10.6,6.3-21.3,9.6-31.7-2.6-8.8-3.2-16.5,0-31.8,4.4-20.7,31.7-100.3,34.1-106.6,3.2-8.7,8.8-18.5,17.8-18.5,1.1,0,2.3.2,3.6.5,2.3.6,4.2,2.1,5.4,4.2,2.5,4.4,2.3,11.7-.6,22.2-1.5,5.6-29.2,93.3-33.3,105.4-6.5,19.5-17,25.9-20.7,27.6-3,9.5-6.4,19.3-8.8,28.8-.8,2.9,1.2,5.9,4.2,6.3,35.2,5.4,131,21.8,166.4,27.4.5,0,.9.1,1.4.1,3.8,0,7.2-2.4,8.4-6.1,5.7-17.5,17.2-62.5,21.3-77.7.7-2.8-.8-5.6-3.6-6.5l-105.2-33.5c-3.9-1.2-2.5-6.9,1-6.9.4,0,.8,0,1.2.2,0,0,104.5,33.2,104.5,33.2.5.2,1.1.3,1.6.3,2.4,0,4.5-1.6,5.2-4l20.7-77.2c.9-3.2-1-6.5-4.1-7.5l-234.9-74.5c-1-.3-2-.5-2.9-.5h0ZM950.4,773.5c-4,0-7.7,4.5-11,13.5-2.3,6.1-29.5,85.7-33.8,105.6-2.5,11.7-2.5,18.2-1.1,24.6,3.7-2.8,9.5-8.8,13.7-21.3,4.4-13.3,32-100.7,33.2-105.1,3.3-11.7,1.8-15.6,1.3-16.5-.3-.5-.5-.6-.9-.7-.5-.1-1-.2-1.5-.2h0Z" fill="#d8d3c7"/>
    <g id="_x3C_Path_x3E_">
      <path d="M710.7,946.9v3c.8,0,1.6,0,2.4.2l313.5,50.9,15.6,2.8c8.1,1.5,13.5,9.2,12.1,17.3-23.9,137.1-41.7,244.9-54.4,329.4-1.1,7.3-7.4,12.7-14.8,12.7s-1.6,0-2.4-.2c-32.9-5.2-65.8-10.4-98.7-15.6-75.4-11.9-153.4-24.2-230.4-36.5-4-.6-7.4-2.8-9.8-6-2.3-3.3-3.3-7.2-2.6-11.2l54.7-331.3c1.2-7.3,7.4-12.5,14.7-12.5v-3M710.7,946.9c-8.6,0-16.3,6.2-17.7,15l-54.7,331.3c-1.6,9.8,5.1,19.1,14.9,20.7,110.1,17.6,219.7,34.7,329.1,52,1,.2,1.9.2,2.8.2,8.7,0,16.4-6.4,17.7-15.3,15.5-102.9,36.4-225.9,54.4-329.3,1.7-9.7-4.8-19-14.5-20.8l-15.6-2.8-313.5-50.9c-1-.2-1.9-.2-2.9-.2h0Z" fill="#d8d3c7"/>
    </g>
    <path d="M497.8,915.2c.1,0,.3,0,.4,0,22.8,3.7,122,19.8,163.3,26.5,4,.7,7.6,2.8,10,6.2,2.4,3.3,3.3,7.4,2.7,11.4l-2.3,13.9-15.1,91.7c-.4,2.3-2.3,4-4.7,4s-.5,0-.8,0c-16.4-2.7-42.1-7-69.5-11.5-36-6-75-12.4-99.8-16.5-3.4-.6-5.6-3.7-5.1-7.1,6.8-45.6,12.5-81.3,18.3-115.6v-.2s0-.2,0-.2c0-1.3,1.2-2.4,2.5-2.4M497.8,912.2c-2.9,0-5.4,2.4-5.5,5.3-6.4,37.8-12.1,74.3-18.4,115.7-.8,5,2.6,9.7,7.6,10.5,43.6,7.2,131.2,21.7,169.3,28,.4,0,.9.1,1.3.1,3.7,0,7-2.7,7.6-6.5,2.9-17.6,12.5-75.7,17.4-105.6,1.6-10-5.1-19.4-15.1-21-41.3-6.7-140.5-22.8-163.3-26.5-.3,0-.6,0-.9,0h0Z" fill="#d8d3c7"/>
  </g>
  <path id="streets" d="M1488,1048.2c28-95,62.1-213.6,83-306.6,2.9-6.9,6.4-14,10.1-18,36.5,9.5,67,17.2,73.4,18.8v-10.1c-11.3-2.9-54.7-14.1-102.3-26.6-10.2-36.3-25-79.7-36.5-116.8-8.4-25.6-19-57.2-19.5-83.3-.2-14.8,3.8-30.9,7.6-44.9,1.2-4.4,2.4-28.1,4.6-37h-9.6c-12.4,26.6-20,47.7-23.7,74.5-2.9,56.4,26.4,112.1,41.5,168.3-2.1,15.9-7.1,19.6-23.5,23.8-63.5-16.6-86.5-21.4-121.2-34.5-4.7-1.8-9.5-3.3-14.3-4.6-56.5-15.1-563.5-149.2-722.6-189.7,7.5-10.5,11.6-31.3,13.2-37.8h-23.7c-3.3,11.8-5.3,22.9-4.7,33.8-19.6-4-30.2-11.8-33.3-3.7-1.4,8.6,12.3,7.2,32.3,13.8-12.5,40.8-98.8,321.1-134.2,427.1-3.9-3.1-8.3-6.1-12.9-7.3-29.3-5.4-92.9-15.7-125.7-20.7-4.4-.7-5.6,6.3-1.1,6.9,37.7,8.7,104.1,10.3,135.5,26.8-18.5,1.7-34.6-5.2-57.1-10.9-3.2-.9-5.7-1.6-7.1-2-2.8-.9-12.9-2.9-58-10.6-6.2-1.1-11.1-1.9-12.1-2.1-4.4-.9-5.8,6.1-1.3,6.9,21.6,3.9,63.7,10.2,76.7,14.5,27.9,7.1,35.8,11.8,57.5,11.3-3.6,7.3-9.7,18.2-12.7,24.7-13.8,53.7-20.9,110.8-30.2,166.5-9.3,54.1-19.1,116.9-27.9,172.8-.4,4.8,1.2,11.5,2.4,18.6-26.1,63.5,22.8,86.7,78.8,100.1,44.2,13.1,82.9,21,136.5,44.1,91.6,34.4,231.3,104.6,359.3,127.4,55.6,9.9,113.5,14,155.1-3.9,51.1-20.5,63.1-59.1,69.9-109.4s16.7-26.6,32.4-24.3c139.4,21.1,275.4,36.8,411.7,79.2v-32.1c-34.1-9.5-41.1-11.9-69.6-14.1-4.3,0-13.5.8-21.1,1.5-50.4-8.7-101.7-17-153.1-25-6.1-1-10.2-6.7-9.2-12.8,7.1-41.4,14.2-90.3,21.3-132.2,63,10.4,146.8,23.6,211.1,34,1.9.3,3.7-1,4-2.9.3-1.9-1-3.7-2.9-4-26-4.2-56.3-9.1-86.5-13.9-4-.6-6.8-4.4-6.2-8.5,4.3-27.4,9.6-60.8,14.2-89.9,1.1-7.2,8.6-11.6,15.5-9.1,22.1,8.1,54.4,19.9,82.4,30.1v-27.5c-65.4-24.4-123.6-46-181-67.9-7.6-2.9-11.7-11-9.6-18.8,2-7.5,4.3-16.1,6.8-25.5,0-.1,3.9-7,7.6-13.5s7.3-15,9.7-23ZM1572.7,721.4c-3,4.2-5.8,9.4-8.3,15.5-3,6.1-5.6,13.1-8.5,19.4,1.1-13.1.6-26.6-1.4-39.7,6.2,1.6,12.3,3.2,18.2,4.8ZM1557.8,770.1c-9.2,39.4-21.9,83.7-34.2,126.8-18.1,57.6-27.1,108.5-45.4,160.4,20-74.7,53.1-199.6,71.1-267.1,2.2-8.5,2.8-13,8.6-20.1ZM1492.9,558.6c-9.3-29-11.3-54.4-3.4-81.8-9.7,38.1,4.8,79,16.6,115.2,10.9,35.2,24.8,76,34.8,110.8-.8-.2-1.7-.4-2.5-.7-14.7-46.1-32-98.8-45.5-143.5ZM1521.1,680.6c2,6.3,4,12.4,5.9,18.5-6.5-1.7-13.1-3.4-19.6-5.1,6.4-2.9,10.8-6.7,13.7-13.3ZM1481.1,697.7c10,2.6,20.1,5.3,30,7.8,5.4,2.4,17.7,2.1,19.9,7.3,8,45.2-7.9,94.1-20.2,138.2-5.8,19.8-11.3,38.4-17.3,59.3-.4,2.3-2.6,3.7-4.7,3.1-.2,0-59.5-19.3-60.9-19.6-.8,0-3.3-2.4-2.5-4.4,14.8-54.1,35.2-129.6,50.6-187.3.3-2.4,2.1-5.2,5-4.4ZM812.5,1360.6c-1.9,11.4-4.1,25-6.2,38.3-2,12.3-5.1,31.7-6.5,40.8s-3.1,4.7-5.8,4.2h0c-2.7-.5-4.5-3-4.1-5.7,2.4-14.7,9.4-59,12.5-79.1.4-2.8,3.1-4.7,5.9-4.2,2.8.4,4.7,3.1,4.2,5.8ZM464.5,1154.4c44,7.3,129.8,21.5,168,27.7,4.2.7,7.1,4.7,6.4,8.9l-16.6,103.9c-1.2,7.4-8.3,12.3-15.6,10.8-33.8-6.8-123.1-20.8-167.4-27-3.7,0-6.4-3.6-5.4-7.2,7.6-36.1,14.1-72.7,20-109.5s5.6-8.5,10.6-7.6ZM457.9,1137c4.1-26.2,8-52.4,12.1-78.6.8-5.1,5.6-8.5,10.6-7.7,43.9,7.3,130.7,21.7,169,28,4.2.7,7.1,4.7,6.4,8.9-3,18.1-10.4,63.3-13.4,81.3-.7,4.2-4.7,7.1-8.9,6.4-37.9-6.2-124.5-20.5-168.2-27.7-5-.8-8.4-5.5-7.6-10.5ZM757,838.9c-1.1-.2-21.6-5.9-33.5-9s-7.1-5.9-5.6-10.3l27.6-85.3c1.1-3.5,4.7-5.4,8.3-4.5l96.2,25.1c3.8,1,6,5,4.8,8.8-18.7,56.3-41.2,122.9-58.4,174.9-1.1,3.2-4.3,5.2-7.6,4.6l-97.4-15.8c-4.1-.7-6.7-4.9-5.4-8.9l24.7-76.1c1.4-4.3,5.9-6.7,10.2-5.6,12.2,3.2,34.7,9.1,35.3,9.1,3.9.1,4.8-6,.9-6.9ZM1275.4,1054.2c15.9-59,32.3-120.8,48.5-180.1.8-3,3.9-4.7,6.9-3.7l76.8,24.4c4.7,1.5,7.4,6.4,6.1,11.2-13.5,49.5-39.7,148.4-48,179.2-1.4,5.2-7,8-12,6.1-16.9-6.6-52.7-19.7-72.7-27.1-4.2-1.5-6.7-5.6-5.6-9.9ZM1269,1050.4c-1.2,4.5-6,7-10.4,5.4-33-12.2-139.8-54-170.9-62.8-3.7-1.1-5.9-5-4.7-8.7,5.5-17.4,17-61.8,21.1-77.1.8-2.8,3.7-4.4,6.5-3.5l175.9,56c3.6,1.1,5.6,4.9,4.7,8.5-7.5,27.7-14.9,55.1-22.1,82.2ZM1410.4,888.2l-76.2-24.2c-3.9-1.2-6-5.3-4.9-9.2,42.5-137.2,3.5-119.8,116.2-91.1,2.2.9,6,2.8,4,10.4-8.9,32.9-20.4,75.3-29.6,109-1.1,4.1-5.4,6.4-9.5,5.2ZM1344.3,773.3c-7.4,26.6-14.8,53.5-22.2,80.6-.9,3.2-4.3,5.1-7.4,4.1l-176.6-56c-3-.9-4.7-4.1-3.9-7.1l19.5-72.8c.8-3.1,4.1-5,7.2-4.2l179.2,48.2c3.2.8,5,4.1,4.1,7.2ZM1137.8,809.1l174.7,55.4c3.5,1.1,5.5,4.8,4.5,8.3-6.8,25-13.6,50.1-20.4,75-1,3.9-5.1,6.1-8.9,4.9l-175.8-55.9c-2.6-.8-4.1-3.6-3.4-6.2l20.6-76.7c1-3.7,4.9-5.9,8.6-4.7ZM860.9,745.1c-.9,2.8-3.8,4.4-6.7,3.6l-98.9-25.8c-3.1-.8-4.9-4-3.9-7.1l28.6-88.5c.9-2.8,3.9-4.4,6.7-3.7l99,26.5c3.1.8,4.8,4,3.9,7-8.1,25.4-18.1,55.8-28.8,87.9ZM1243.2,1244.7c8-49.7,16.9-106.3,25.3-159,.7-4.3,5.1-6.8,9.1-5.3,17.4,6.5,53.2,19.7,74.1,27.4,5.6,2,8.9,7.7,8,13.5-6.7,43.9-14.5,93.6-21.9,138.9-.7,4.3-4.7,7.2-9.1,6.5-26.5-4.3-55.9-9.1-79.1-12.9-4.3-.7-7.2-4.7-6.5-9ZM1187.5,622.2c16.8,4.8,33.5,9.7,50.3,14.6,44,10,105.1,32,147.3,36.1s4.1.6,6.1,1.1c22.6,5.9,45.5,12,68.1,18,5,.8,11.2,3.2,9.6,9.4l-13.7,51.1c-1,3.8-5.1,5.9-8.8,4.5-13.2-5.2-38.2-9.8-46.1-13.1-35.4-10.8-43.4-12.6-50.8,10.8-1.1,3.4-4.6,5.3-8.1,4.4l-178-47.8c-3.5-1-5.6-4.6-4.7-8.1l20.5-76.3c1-3.6,4.7-5.7,8.3-4.7ZM822.6,521.8c115.2,30.7,229,61.4,343.8,94.3,4.4,1.3,7,5.8,5.8,10.2-12.7,47.5-32.1,119.8-43.8,163.3-1.2,4.6-6.1,7.3-10.6,5.8l-229.9-73.2c-5.2-1.7-8.1-7.2-6.5-12.4l17.3-56.4c1.2-3.9-1.1-8.1-5.1-9.2l-103.2-27.8c-3.2-.9-5-4.2-4-7.3,4.5-13.7,16.1-49.7,25.9-81.8,1.4-4.2,5.8-6.7,10.1-5.5ZM602.6,561.1c4.4-14.3,8.8-28.5,13.2-42.7,5.4-14.8,8-31.3,14.9-45.3,6.2-3.5,18.7,3.7,26,4.5,49,13.1,97.2,25.9,145.8,38.8,3.1.8,4.8,4,3.8,7.1l-27.6,85.2c-.9,2.8-3.9,4.4-6.7,3.7l-165.6-44.3c-3-.8-4.8-4-3.9-7ZM569.3,668.3c9.4-30,18.7-59.9,27.9-89.8.9-2.9,3.9-4.5,6.7-3.7l165.3,44.3c3.1.8,4.8,4,3.8,7.1l-28.7,88.6c-.9,2.8-3.8,4.4-6.7,3.7l-164.6-43c-3.1-.8-4.8-4-3.9-7ZM535.6,775.3c9.5-29.9,18.9-59.8,28.3-89.7s3.8-4.5,6.7-3.7l164.4,42.9c3.1.8,4.9,4,3.9,7.1l-29.4,87.6c-1.2,3.6-5,5.7-8.7,4.7-28.3-7.4-139.9-36.4-161.3-41.9-3.1-.8-4.8-4-3.9-7ZM498.8,889.6c10.5-32.2,21-64.6,31.3-97,.9-2.8,3.9-4.4,6.7-3.7,33.6,9,137.6,37.1,163.2,43.7,3.1.8,4.9,4,3.9,7.1l-26.1,80.7c-.8,2.6-3.5,4.2-6.2,3.8l-168.5-27.3c-3.4-.5-5.4-4-4.4-7.2ZM492.3,917.5c.1-3.2,3.1-5.8,6.4-5.2,22.8,3.7,122,19.8,163.3,26.5,10,1.6,16.8,11,15.1,21-4.9,29.9-14.5,88-17.4,105.6-.7,4.2-4.7,7.1-8.9,6.4-38-6.3-125.7-20.8-169.3-28-5-.8-8.4-5.5-7.6-10.5,4.9-39.5,15.4-76.2,18.4-115.7ZM423.6,1250.6c19.9-106.9,28.4-217.4,57.1-320.4-13.4,70.6-24.5,147.6-36.8,219.8-7.1,40.7-10.1,90-23.6,125.4-.9,0,3.3-23.8,3.3-24.8ZM630.1,1424.1c-44-19.1-83.9-29.7-115.9-38.2-60.1-18.4-113.1-23.9-95-86.7,20,3.9,35.8,3.7,54.7,4s17.5.9,26.2,2.3c23.5,3.8,47.1,7.7,70.9,11.5,3.7.6,6.2,4.1,5.6,7.8-3.1,19.3-7.2,44.3-10.1,62.6-.9,4.5,6.3,5.6,6.9,1.1,3-18.3,7-43.4,10.1-62.6.6-3.7,4.1-6.2,7.7-5.6,25,4,75.2,12.3,93.8,15.5s7.1,4.7,6.4,8.9c-2.4,16-9.2,51.8-12,68.6s-1.3,8.6-1.7,11.4.6,2.8,2,3.2h0c1.7.6,3.5-.5,3.8-2.3.5-2.8,1.3-6.9,2-10.5,5.1-27,9.7-56.3,11.6-69.5s4.3-6.7,8.3-6.1c14.8,2.2,50,7.5,83.9,12.3,3.7.6,6.2,4.1,5.6,7.7-2,12.6-4.9,30.1-6.9,42.4l-5.6,35.7c-1,6.5,3.3,12.7,9.8,13.9h0c6.7,1.2,13.1-3.3,14.2-10.1,3.3-20.5,9.7-60.9,12.5-78.2.6-3.7,4.1-6.2,7.7-5.6,27.5,4.3,54.7,8.6,82.1,12.9,3.7.6,6.2,4,5.6,7.7-5.2,33.6-11.8,76.8-16.8,109.3-.7,4.5,6.2,5.5,6.9,1.1,5.1-32.5,11.6-75.7,16.8-109.3.6-3.7,4-6.2,7.7-5.6,20.5,3.2,40.9,6.5,61.2,9.7,7.5,1.2,12.7,8,11.9,15.5-5,46.5-24.3,141.8-23.4,144.3-.4,2.1,0,3.8,1,5.5h0c-126.6-25.8-277.1-95.4-349.9-124.7ZM1200.3,1438.3c-1.9,15.5-8.8,55.7-20,72.3-31.3,46.2-103.9,55-188.6,40.5,1.1-.8,2.1-1.9,2.6-3.5,0,0,17.1-100.1,24.2-144.9.9-5.8,6.4-9.8,12.3-8.8,13.1,2.2,28,4.5,45,7.2,4.8.8,8,5.2,7.3,10-4.5,29.4-10.3,66.6-14.3,93.2-.3,1.9,1,3.7,2.9,4,1.9.3,3.7-1,4-2.9,4.1-26.6,9.8-63.7,14.3-93,.7-4.8,5.2-8.1,10.1-7.3,27.8,4.5,75.8,12.7,93.3,15.6,4.1.7,7.2,4.2,7.4,8.4s0,5.7-.4,9.2ZM1213.1,1387.9c-1,6.5-7.2,10.4-13.7,9.4-36.7-5.6-114.2-17.5-167.2-26.5-8.8-1.5-15.1-9.1-13.8-18,2.9-18.5,7.6-48.5,10.9-68.2.7-4.2,4.6-7,8.7-6.3,48.2,7.8,133.5,21.5,180.2,29,4.2.7,7,4.6,6.3,8.7-4.1,25.5-8,49.6-11.6,71.8ZM1377.6,1421.1c-.6,3.9-4.6,6.7-8.4,6-46.3-7.2-92.5-14.3-138.3-21.2-7.3-1.1-12.3-8-11.2-15.3,6-37.1,12.8-79.7,20.2-125.3.5-3.3,3.7-5.6,7-5.1,24,4,55,9,82.6,13.5,3.3.5,5.5,3.6,5,7-6.4,39.3-13,79.9-19,118-.8,4.5,6.3,5.6,6.9,1.1,6-38.1,12.6-78.7,19-118s3.7-5.6,7-5c14.4,2.4,32.6,5.6,45.8,7.9,7.6,1.5,4.3,10,3.5,15.3-4.7,27.4-9.1,54.9-13.5,81.6-2.2,13.4-4.4,26.6-6.6,39.5ZM1402.2,1353.7c-4.3,27.5-8.4,53.6-12.5,76.6-1.2-.2-2.3-.4-3.5-.5,17.4-95.2,28.7-196.5,55.3-284.3.8.3,1.6.6,2.4.9-19.1,68.5-30.2,130.7-41.7,207.3ZM1550.6,1196.4c-4.8,30.4-10.5,66.6-15.1,95.8-.6,4.1-4.5,6.9-8.6,6.2-35.9-5.8-71.8-11.5-103-16.7,5.4-36.5,16.3-81.7,25.2-116,2.2-8.4,11.2-13.1,19.3-10,24.2,9.1,49.1,18.4,74.7,28,5.2,1.9,8.3,7.2,7.4,12.7ZM1450.8,1120.4c-.8-.3-1.5-.6-2.3-.9,20.5-81.8,95.4-346.5,94.8-363.2h0c.7-13.6,1-29-1.9-43.1.8.2,1.6.4,2.4.6,3.9,20.5,3.5,42.3-1,61.6-23.1,86.5-74.2,279.4-92,345ZM1261.6,1085.3c-11.5,71.8-23,143.8-33.3,208.2-.7,4.5-5,7.6-9.5,6.9-46.6-7.4-130.7-21-178.8-28.8-4.6-.7-7.6-5.1-6.8-9.6,13.6-77.6,25.6-164.1,40.1-238.8,1.8-9.1,11.1-14.7,19.9-11.8,23.1,7.4,59.5,22,77.5,28.7,3.8,1.4,5.7,5.5,4.3,9.3-7.4,20.8-16.8,45.9-19.6,66.4,0,0-20.1,124.9-20.1,124.9-.4,2.1,1.3,4.1,3.5,4.1,1.7,0,3.2-1.2,3.5-2.9l20.1-124.9c2.7-20.2,12.2-45.5,19.5-65.9,1.2-3.3,4.9-5.1,8.2-3.8l63,23.6c5.9,2.2,9.5,8.3,8.5,14.5ZM1424.8,1167.3c-4.9,21.7-12.5,57-17.9,83-5.9,28.4-6.3,28.4-15.5,26.8-12.5-2.2-26.6-4.5-40.1-6.8-4.3-.7-7.2-4.8-6.5-9,7.3-45,15.2-94.1,21.8-137.8.8-5,5.9-7.9,10.6-6.2,15.9,5.9,19.4,7.2,39.4,14.7,14.7,5.5,12.9,14.9,8.3,35.3ZM1371.6,1090c12.2-52.3,32.6-120.5,48.8-182,1.2-4.6,6.1-7.3,10.6-5.8l56,18.1c1.9.6,3,2.6,2.5,4.6-4.3,15.8-8.6,32.2-12.6,49.5-19.4,70.4-34.9,129.2-37.5,135.7-2.9,7.3-8.3,9.7-14.4,7.5-19.5-7.2-32.9-12.1-48.3-17.9s-6-5.7-5.1-9.6ZM1122.8,810.6l-20.7,77.2c-.8,3-3.9,4.6-6.8,3.7,0,0-104.5-33.2-104.5-33.2-4.3-1.5-6.5,5.4-2.1,6.7l105.2,33.5c2.7.9,4.3,3.7,3.6,6.5-4.1,15.2-15.5,60.2-21.3,77.7-1.4,4.1-5.5,6.6-9.8,6-35.4-5.5-131.2-21.9-166.4-27.4-3-.5-4.9-3.4-4.2-6.3,2.5-9.6,5.8-19.4,8.8-28.8,3.7-1.7,14.2-8.1,20.7-27.6,4.1-12.2,31.8-99.9,33.3-105.4,2.9-10.5,3.1-17.8.6-22.2-1.2-2.1-3.1-3.6-5.4-4.2-11.2-3-17.8,8.1-21.4,18-2.4,6.4-29.6,85.9-34.1,106.6-3.3,15.3-2.6,23,0,31.8-3.3,10.4-7,21.1-9.6,31.7-.6,2.6-3.2,4.2-5.8,3.8l-74.2-12c-3.8-.6-6.1-4.4-4.9-8.1,20.4-61.6,46.5-138.7,67.9-203.5,1.7-5,7.1-7.8,12.1-6.2l234.9,74.5c3.2,1,5,4.3,4.1,7.5ZM951.9,773.7c.3,0,.6.2.9.7.5.9,1.9,4.8-1.3,16.5-1.2,4.3-28.8,91.8-33.2,105.1-4.2,12.5-10,18.6-13.7,21.3-1.4-6.4-1.4-12.9,1.1-24.6,4.2-19.9,31.5-99.5,33.8-105.6,3.3-9,7-13.5,11-13.5s1,0,1.5.2ZM653.2,1313.9c-9.8-1.6-16.5-10.8-14.9-20.7l54.7-331.3c1.6-9.8,10.8-16.4,20.6-14.8l313.5,50.9,15.6,2.8c9.7,1.8,16.2,11,14.5,20.8-18,103.4-38.9,226.4-54.4,329.3-1.5,9.9-10.7,16.6-20.6,15.1-109.4-17.3-219-34.4-329.1-52Z" stroke="#999" stroke-miterlimit="10"/>
</svg>